<?xml version="1.0" encoding="utf-8"?>
<!-- Generator: Adobe Illustrator 16.0.0, SVG Export Plug-In . SVG Version: 6.00 Build 0)  -->
<!DOCTYPE svg PUBLIC "-//W3C//DTD SVG 1.1//EN" "http://www.w3.org/Graphics/SVG/1.1/DTD/svg11.dtd">
<svg version="1.1" id="Layer_1" xmlns="http://www.w3.org/2000/svg" xmlns:xlink="http://www.w3.org/1999/xlink" x="0px" y="0px"
	 width="1400px" height="980px" viewBox="0 0 1400 980" enable-background="new 0 0 1400 980" xml:space="preserve">
<g>
	<g>
		<g>
			<rect fill="#39CDFF" width="1400" height="980"/>
		</g>
	</g>
	<g>
		<rect x="423" y="344.4" fill="#36C1F0" width="552.5" height="291.7"/>
	</g>
	<g>
		<g>
			<g>
				<path fill="#FFFFFF" d="M36.8,378.1c0,12.9-4.8,20.1-13.2,20.1c-7.4,0-12.5-7-12.6-19.5c0-12.8,5.5-19.8,13.2-19.8
					C32.2,358.9,36.8,366,36.8,378.1z M16.2,378.7c0,9.9,3,15.5,7.7,15.5c5.3,0,7.8-6.1,7.8-15.9c0-9.4-2.4-15.5-7.7-15.5
					C19.4,362.8,16.2,368.3,16.2,378.7z"/>
			</g>
			<g>
				<path fill="#FFFFFF" d="M66.8,378.1c0,12.9-4.8,20.1-13.2,20.1c-7.4,0-12.5-7-12.6-19.5c0-12.8,5.5-19.8,13.2-19.8
					C62.3,358.9,66.8,366,66.8,378.1z M46.2,378.7c0,9.9,3,15.5,7.7,15.5c5.3,0,7.8-6.1,7.8-15.9c0-9.4-2.4-15.5-7.7-15.5
					C49.4,362.8,46.2,368.3,46.2,378.7z"/>
			</g>
			<g>
				<path fill="#FFFFFF" d="M82.7,364.3h-0.1l-6.6,3.6l-1-3.9l8.3-4.4h4.4v38h-5V364.3z"/>
			</g>
			<g>
				<path fill="#FFFFFF" d="M112.8,364.3h-0.1l-6.6,3.6l-1-3.9l8.3-4.4h4.4v38h-5V364.3z"/>
			</g>
			<g>
				<path fill="#FFFFFF" d="M156.9,378.1c0,12.9-4.8,20.1-13.2,20.1c-7.4,0-12.5-7-12.6-19.5c0-12.8,5.5-19.8,13.2-19.8
					C152.3,358.9,156.9,366,156.9,378.1z M136.2,378.7c0,9.9,3,15.5,7.7,15.5c5.3,0,7.8-6.1,7.8-15.9c0-9.4-2.4-15.5-7.7-15.5
					C139.5,362.8,136.2,368.3,136.2,378.7z"/>
			</g>
			<g>
				<path fill="#FFFFFF" d="M172.8,364.3h-0.1l-6.6,3.6l-1-3.9l8.3-4.4h4.4v38h-5V364.3z"/>
			</g>
			<g>
				<path fill="#FFFFFF" d="M216.9,378.1c0,12.9-4.8,20.1-13.2,20.1c-7.4,0-12.5-7-12.6-19.5c0-12.8,5.5-19.8,13.2-19.8
					C212.3,358.9,216.9,366,216.9,378.1z M196.3,378.7c0,9.9,3,15.5,7.7,15.5c5.3,0,7.8-6.1,7.8-15.9c0-9.4-2.4-15.5-7.7-15.5
					C199.5,362.8,196.3,368.3,196.3,378.7z"/>
			</g>
			<g>
				<path fill="#FFFFFF" d="M246.9,378.1c0,12.9-4.8,20.1-13.2,20.1c-7.4,0-12.5-7-12.6-19.5c0-12.8,5.5-19.8,13.2-19.8
					C242.4,358.9,246.9,366,246.9,378.1z M226.3,378.7c0,9.9,3,15.5,7.7,15.5c5.3,0,7.8-6.1,7.8-15.9c0-9.4-2.4-15.5-7.7-15.5
					C229.6,362.8,226.3,368.3,226.3,378.7z"/>
			</g>
			<g>
				<path fill="#FFFFFF" d="M262.8,364.3h-0.1l-6.6,3.6l-1-3.9l8.3-4.4h4.4v38h-5V364.3z"/>
			</g>
			<g>
				<path fill="#FFFFFF" d="M307,378.1c0,12.9-4.8,20.1-13.2,20.1c-7.4,0-12.5-7-12.6-19.5c0-12.8,5.5-19.8,13.2-19.8
					C302.4,358.9,307,366,307,378.1z M286.3,378.7c0,9.9,3,15.5,7.7,15.5c5.3,0,7.8-6.1,7.8-15.9c0-9.4-2.4-15.5-7.7-15.5
					C289.6,362.8,286.3,368.3,286.3,378.7z"/>
			</g>
			<g>
				<path fill="#FFFFFF" d="M337,378.1c0,12.9-4.8,20.1-13.2,20.1c-7.4,0-12.5-7-12.6-19.5c0-12.8,5.5-19.8,13.2-19.8
					C332.4,358.9,337,366,337,378.1z M316.3,378.7c0,9.9,3,15.5,7.7,15.5c5.3,0,7.8-6.1,7.8-15.9c0-9.4-2.4-15.5-7.7-15.5
					C319.6,362.8,316.3,368.3,316.3,378.7z"/>
			</g>
			<g>
				<path fill="#FFFFFF" d="M352.9,364.3h-0.1l-6.6,3.6l-1-3.9l8.3-4.4h4.4v38h-5V364.3z"/>
			</g>
			<g>
				<path fill="#FFFFFF" d="M382.9,364.3h-0.1l-6.6,3.6l-1-3.9l8.3-4.4h4.4v38h-5V364.3z"/>
			</g>
			<g>
				<path fill="#FFFFFF" d="M412.9,364.3h-0.1l-6.6,3.6l-1-3.9l8.3-4.4h4.4v38h-5V364.3z"/>
			</g>
			<g>
				<path fill="#FFFFFF" d="M457,378.1c0,12.9-4.8,20.1-13.2,20.1c-7.4,0-12.5-7-12.6-19.5c0-12.8,5.5-19.8,13.2-19.8
					C452.5,358.9,457,366,457,378.1z M436.4,378.7c0,9.9,3,15.5,7.7,15.5c5.3,0,7.8-6.1,7.8-15.9c0-9.4-2.4-15.5-7.7-15.5
					C439.7,362.8,436.4,368.3,436.4,378.7z"/>
			</g>
			<g>
				<path fill="#FFFFFF" d="M473,364.3h-0.1l-6.6,3.6l-1-3.9l8.3-4.4h4.4v38h-5V364.3z"/>
			</g>
			<g>
				<path fill="#FFFFFF" d="M517.1,378.1c0,12.9-4.8,20.1-13.2,20.1c-7.4,0-12.5-7-12.6-19.5c0-12.8,5.5-19.8,13.2-19.8
					C512.5,358.9,517.1,366,517.1,378.1z M496.4,378.7c0,9.9,3,15.5,7.7,15.5c5.3,0,7.8-6.1,7.8-15.9c0-9.4-2.4-15.5-7.7-15.5
					C499.7,362.8,496.4,368.3,496.4,378.7z"/>
			</g>
			<g>
				<path fill="#FFFFFF" d="M533,364.3h-0.1l-6.6,3.6l-1-3.9l8.3-4.4h4.4v38h-5V364.3z"/>
			</g>
			<g>
				<path fill="#FFFFFF" d="M577.1,378.1c0,12.9-4.8,20.1-13.2,20.1c-7.4,0-12.5-7-12.6-19.5c0-12.8,5.5-19.8,13.2-19.8
					C572.6,358.9,577.1,366,577.1,378.1z M556.5,378.7c0,9.9,3,15.5,7.7,15.5c5.3,0,7.8-6.1,7.8-15.9c0-9.4-2.4-15.5-7.7-15.5
					C559.7,362.8,556.5,368.3,556.5,378.7z"/>
			</g>
			<g>
				<path fill="#FFFFFF" d="M607.1,378.1c0,12.9-4.8,20.1-13.2,20.1c-7.4,0-12.5-7-12.6-19.5c0-12.8,5.5-19.8,13.2-19.8
					C602.6,358.9,607.1,366,607.1,378.1z M586.5,378.7c0,9.9,3,15.5,7.7,15.5c5.3,0,7.8-6.1,7.8-15.9c0-9.4-2.4-15.5-7.7-15.5
					C589.8,362.8,586.5,368.3,586.5,378.7z"/>
			</g>
			<g>
				<path fill="#FFFFFF" d="M623.1,364.3h-0.1l-6.6,3.6l-1-3.9l8.3-4.4h4.4v38h-5V364.3z"/>
			</g>
			<g>
				<path fill="#FFFFFF" d="M667.2,378.1c0,12.9-4.8,20.1-13.2,20.1c-7.4,0-12.5-7-12.6-19.5c0-12.8,5.5-19.8,13.2-19.8
					C662.6,358.9,667.2,366,667.2,378.1z M646.5,378.7c0,9.9,3,15.5,7.7,15.5c5.3,0,7.8-6.1,7.8-15.9c0-9.4-2.4-15.5-7.7-15.5
					C649.8,362.8,646.5,368.3,646.5,378.7z"/>
			</g>
			<g>
				<path fill="#FFFFFF" d="M683.1,364.3H683l-6.6,3.6l-1-3.9l8.3-4.4h4.4v38h-5V364.3z"/>
			</g>
			<g>
				<path fill="#FFFFFF" d="M727.2,378.1c0,12.9-4.8,20.1-13.2,20.1c-7.4,0-12.5-7-12.6-19.5c0-12.8,5.5-19.8,13.2-19.8
					C722.6,358.9,727.2,366,727.2,378.1z M706.6,378.7c0,9.9,3,15.5,7.7,15.5c5.3,0,7.8-6.1,7.8-15.9c0-9.4-2.4-15.5-7.7-15.5
					C709.8,362.8,706.6,368.3,706.6,378.7z"/>
			</g>
			<g>
				<path fill="#FFFFFF" d="M757.2,378.1c0,12.9-4.8,20.1-13.2,20.1c-7.4,0-12.5-7-12.6-19.5c0-12.8,5.5-19.8,13.2-19.8
					C752.7,358.9,757.2,366,757.2,378.1z M736.6,378.7c0,9.9,3.1,15.5,7.7,15.5c5.3,0,7.8-6.1,7.8-15.9c0-9.4-2.4-15.5-7.7-15.5
					C739.8,362.8,736.6,368.3,736.6,378.7z"/>
			</g>
			<g>
				<path fill="#FFFFFF" d="M787.2,378.1c0,12.9-4.8,20.1-13.2,20.1c-7.4,0-12.5-7-12.6-19.5c0-12.8,5.5-19.8,13.2-19.8
					C782.7,358.9,787.2,366,787.2,378.1z M766.6,378.7c0,9.9,3,15.5,7.7,15.5c5.3,0,7.8-6.1,7.8-15.9c0-9.4-2.4-15.5-7.7-15.5
					C769.9,362.8,766.6,368.3,766.6,378.7z"/>
			</g>
			<g>
				<path fill="#FFFFFF" d="M803.2,364.3H803l-6.6,3.6l-1-3.9l8.3-4.4h4.4v38h-5V364.3z"/>
			</g>
			<g>
				<path fill="#FFFFFF" d="M847.3,378.1c0,12.9-4.8,20.1-13.2,20.1c-7.4,0-12.5-7-12.6-19.5c0-12.8,5.5-19.8,13.2-19.8
					C842.7,358.9,847.3,366,847.3,378.1z M826.6,378.7c0,9.9,3,15.5,7.7,15.5c5.3,0,7.8-6.1,7.8-15.9c0-9.4-2.4-15.5-7.7-15.5
					C829.9,362.8,826.6,368.3,826.6,378.7z"/>
			</g>
			<g>
				<path fill="#FFFFFF" d="M863.2,364.3h-0.1l-6.6,3.6l-1-3.9l8.3-4.4h4.4v38h-5V364.3z"/>
			</g>
			<g>
				<path fill="#FFFFFF" d="M907.3,378.1c0,12.9-4.8,20.1-13.2,20.1c-7.4,0-12.5-7-12.6-19.5c0-12.8,5.5-19.8,13.2-19.8
					C902.7,358.9,907.3,366,907.3,378.1z M886.6,378.7c0,9.9,3,15.5,7.7,15.5c5.3,0,7.8-6.1,7.8-15.9c0-9.4-2.4-15.5-7.7-15.5
					C889.9,362.8,886.6,368.3,886.6,378.7z"/>
			</g>
			<g>
				<path fill="#FFFFFF" d="M923.2,364.3h-0.1l-6.6,3.6l-1-3.9l8.3-4.4h4.4v38h-5V364.3z"/>
			</g>
			<g>
				<path fill="#FFFFFF" d="M953.2,364.3h-0.1l-6.6,3.6l-1-3.9l8.3-4.4h4.4v38h-5V364.3z"/>
			</g>
			<g>
				<path fill="#FFFFFF" d="M997.4,378.1c0,12.9-4.8,20.1-13.2,20.1c-7.4,0-12.5-7-12.6-19.5c0-12.8,5.5-19.8,13.2-19.8
					C992.8,358.9,997.4,366,997.4,378.1z M976.7,378.7c0,9.9,3,15.5,7.7,15.5c5.3,0,7.8-6.1,7.8-15.9c0-9.4-2.4-15.5-7.7-15.5
					C980,362.8,976.7,368.3,976.7,378.7z"/>
			</g>
			<g>
				<path fill="#FFFFFF" d="M1013.3,364.3h-0.1l-6.6,3.6l-1-3.9l8.3-4.4h4.4v38h-5V364.3z"/>
			</g>
			<g>
				<path fill="#FFFFFF" d="M1043.3,364.3h-0.1l-6.6,3.6l-1-3.9l8.3-4.4h4.4v38h-5V364.3z"/>
			</g>
			<g>
				<path fill="#FFFFFF" d="M1073.3,364.3h-0.1l-6.6,3.6l-1-3.9l8.3-4.4h4.4v38h-5V364.3z"/>
			</g>
			<g>
				<path fill="#FFFFFF" d="M1117.4,378.1c0,12.9-4.8,20.1-13.2,20.1c-7.4,0-12.5-7-12.6-19.5c0-12.8,5.5-19.8,13.2-19.8
					C1112.9,358.9,1117.4,366,1117.4,378.1z M1096.8,378.7c0,9.9,3,15.5,7.7,15.5c5.3,0,7.8-6.1,7.8-15.9c0-9.4-2.4-15.5-7.7-15.5
					C1100,362.8,1096.8,368.3,1096.8,378.7z"/>
			</g>
			<g>
				<path fill="#FFFFFF" d="M1133.3,364.3h-0.1l-6.6,3.6l-1-3.9l8.3-4.4h4.4v38h-5V364.3z"/>
			</g>
			<g>
				<path fill="#FFFFFF" d="M1163.4,364.3h-0.1l-6.6,3.6l-1-3.9l8.3-4.4h4.4v38h-5V364.3z"/>
			</g>
			<g>
				<path fill="#FFFFFF" d="M1207.5,378.1c0,12.9-4.8,20.1-13.2,20.1c-7.4,0-12.5-7-12.6-19.5c0-12.8,5.5-19.8,13.2-19.8
					C1202.9,358.9,1207.5,366,1207.5,378.1z M1186.8,378.7c0,9.9,3,15.5,7.7,15.5c5.3,0,7.8-6.1,7.8-15.9c0-9.4-2.4-15.5-7.7-15.5
					C1190.1,362.8,1186.8,368.3,1186.8,378.7z"/>
			</g>
			<g>
				<path fill="#FFFFFF" d="M1223.4,364.3h-0.1l-6.6,3.6l-1-3.9l8.3-4.4h4.4v38h-5V364.3z"/>
			</g>
			<g>
				<path fill="#FFFFFF" d="M1267.5,378.1c0,12.9-4.8,20.1-13.2,20.1c-7.4,0-12.5-7-12.6-19.5c0-12.8,5.5-19.8,13.2-19.8
					C1262.9,358.9,1267.5,366,1267.5,378.1z M1246.9,378.7c0,9.9,3,15.5,7.7,15.5c5.3,0,7.8-6.1,7.8-15.9c0-9.4-2.4-15.5-7.7-15.5
					C1250.1,362.8,1246.9,368.3,1246.9,378.7z"/>
			</g>
			<g>
				<path fill="#FFFFFF" d="M1283.4,364.3h-0.1l-6.6,3.6l-1-3.9l8.3-4.4h4.4v38h-5V364.3z"/>
			</g>
			<g>
				<path fill="#FFFFFF" d="M1313.4,364.3h-0.1l-6.6,3.6l-1-3.9l8.3-4.4h4.4v38h-5V364.3z"/>
			</g>
			<g>
				<path fill="#FFFFFF" d="M1357.6,378.1c0,12.9-4.8,20.1-13.2,20.1c-7.4,0-12.5-7-12.6-19.5c0-12.8,5.5-19.8,13.2-19.8
					C1353,358.9,1357.6,366,1357.6,378.1z M1336.9,378.7c0,9.9,3,15.5,7.7,15.5c5.3,0,7.8-6.1,7.8-15.9c0-9.4-2.4-15.5-7.7-15.5
					C1340.2,362.8,1336.9,368.3,1336.9,378.7z"/>
			</g>
			<g>
				<path fill="#FFFFFF" d="M1373.5,364.3h-0.1l-6.6,3.6l-1-3.9l8.3-4.4h4.4v38h-5V364.3z"/>
			</g>
		</g>
		<g>
			<g>
				<path fill="#FFFFFF" d="M36.8,451.2c0,12.9-4.8,20.1-13.2,20.1c-7.4,0-12.5-7-12.6-19.5C11,439,16.5,432,24.2,432
					C32.2,432,36.8,439.1,36.8,451.2z M16.2,451.8c0,9.9,3,15.5,7.7,15.5c5.3,0,7.8-6.1,7.8-15.9c0-9.4-2.4-15.5-7.7-15.5
					C19.4,436,16.2,441.5,16.2,451.8z"/>
			</g>
			<g>
				<path fill="#FFFFFF" d="M66.8,451.2c0,12.9-4.8,20.1-13.2,20.1c-7.4,0-12.5-7-12.6-19.5C41,439,46.5,432,54.2,432
					C62.3,432,66.8,439.1,66.8,451.2z M46.2,451.8c0,9.9,3,15.5,7.7,15.5c5.3,0,7.8-6.1,7.8-15.9c0-9.4-2.4-15.5-7.7-15.5
					C49.4,436,46.2,441.5,46.2,451.8z"/>
			</g>
			<g>
				<path fill="#FFFFFF" d="M96.8,451.2c0,12.9-4.8,20.1-13.2,20.1c-7.4,0-12.5-7-12.6-19.5C71,439,76.5,432,84.3,432
					C92.3,432,96.8,439.1,96.8,451.2z M76.2,451.8c0,9.9,3,15.5,7.7,15.5c5.3,0,7.8-6.1,7.8-15.9c0-9.4-2.4-15.5-7.7-15.5
					C79.5,436,76.2,441.5,76.2,451.8z"/>
			</g>
			<g>
				<path fill="#FFFFFF" d="M112.8,437.4h-0.1L106,441l-1-3.9l8.3-4.4h4.4v38h-5V437.4z"/>
			</g>
			<g>
				<path fill="#FFFFFF" d="M142.8,437.4h-0.1L136,441l-1-3.9l8.3-4.4h4.4v38h-5V437.4z"/>
			</g>
			<g>
				<path fill="#FFFFFF" d="M186.9,451.2c0,12.9-4.8,20.1-13.2,20.1c-7.4,0-12.5-7-12.6-19.5c0-12.7,5.5-19.8,13.2-19.8
					C182.3,432,186.9,439.1,186.9,451.2z M166.2,451.8c0,9.9,3,15.5,7.7,15.5c5.3,0,7.8-6.1,7.8-15.9c0-9.4-2.4-15.5-7.7-15.5
					C169.5,436,166.2,441.5,166.2,451.8z"/>
			</g>
			<g>
				<path fill="#FFFFFF" d="M216.9,451.2c0,12.9-4.8,20.1-13.2,20.1c-7.4,0-12.5-7-12.6-19.5c0-12.7,5.5-19.8,13.2-19.8
					C212.3,432,216.9,439.1,216.9,451.2z M196.3,451.8c0,9.9,3,15.5,7.7,15.5c5.3,0,7.8-6.1,7.8-15.9c0-9.4-2.4-15.5-7.7-15.5
					C199.5,436,196.3,441.5,196.3,451.8z"/>
			</g>
			<g>
				<path fill="#FFFFFF" d="M232.8,437.4h-0.1l-6.6,3.6l-1-3.9l8.3-4.4h4.4v38h-5V437.4z"/>
			</g>
			<g>
				<path fill="#FFFFFF" d="M262.8,437.4h-0.1l-6.6,3.6l-1-3.9l8.3-4.4h4.4v38h-5V437.4z"/>
			</g>
			<g>
				<path fill="#FFFFFF" d="M307,451.2c0,12.9-4.8,20.1-13.2,20.1c-7.4,0-12.5-7-12.6-19.5c0-12.7,5.5-19.8,13.2-19.8
					C302.4,432,307,439.1,307,451.2z M286.3,451.8c0,9.9,3,15.5,7.7,15.5c5.3,0,7.8-6.1,7.8-15.9c0-9.4-2.4-15.5-7.7-15.5
					C289.6,436,286.3,441.5,286.3,451.8z"/>
			</g>
			<g>
				<path fill="#FFFFFF" d="M337,451.2c0,12.9-4.8,20.1-13.2,20.1c-7.4,0-12.5-7-12.6-19.5c0-12.7,5.5-19.8,13.2-19.8
					C332.4,432,337,439.1,337,451.2z M316.3,451.8c0,9.9,3,15.5,7.7,15.5c5.3,0,7.8-6.1,7.8-15.9c0-9.4-2.4-15.5-7.7-15.5
					C319.6,436,316.3,441.5,316.3,451.8z"/>
			</g>
			<g>
				<path fill="#FFFFFF" d="M352.9,437.4h-0.1l-6.6,3.6l-1-3.9l8.3-4.4h4.4v38h-5V437.4z"/>
			</g>
			<g>
				<path fill="#FFFFFF" d="M397,451.2c0,12.9-4.8,20.1-13.2,20.1c-7.4,0-12.5-7-12.6-19.5c0-12.7,5.5-19.8,13.2-19.8
					C392.4,432,397,439.1,397,451.2z M376.4,451.8c0,9.9,3,15.5,7.7,15.5c5.3,0,7.8-6.1,7.8-15.9c0-9.4-2.4-15.5-7.7-15.5
					C379.6,436,376.4,441.5,376.4,451.8z"/>
			</g>
			<g>
				<path fill="#FFFFFF" d="M427,451.2c0,12.9-4.8,20.1-13.2,20.1c-7.4,0-12.5-7-12.6-19.5c0-12.7,5.5-19.8,13.2-19.8
					C422.5,432,427,439.1,427,451.2z M406.4,451.8c0,9.9,3,15.5,7.7,15.5c5.3,0,7.8-6.1,7.8-15.9c0-9.4-2.4-15.5-7.7-15.5
					C409.6,436,406.4,441.5,406.4,451.8z"/>
			</g>
			<g>
				<path fill="#FFFFFF" d="M442.9,437.4h-0.1l-6.6,3.6l-1-3.9l8.3-4.4h4.4v38h-5V437.4z"/>
			</g>
			<g>
				<path fill="#FFFFFF" d="M473,437.4h-0.1l-6.6,3.6l-1-3.9l8.3-4.4h4.4v38h-5V437.4z"/>
			</g>
			<g>
				<path fill="#FFFFFF" d="M503,437.4h-0.1l-6.6,3.6l-1-3.9l8.3-4.4h4.4v38h-5V437.4z"/>
			</g>
			<g>
				<path fill="#FFFFFF" d="M547.1,451.2c0,12.9-4.8,20.1-13.2,20.1c-7.4,0-12.5-7-12.6-19.5c0-12.7,5.5-19.8,13.2-19.8
					C542.5,432,547.1,439.1,547.1,451.2z M526.4,451.8c0,9.9,3,15.5,7.7,15.5c5.3,0,7.8-6.1,7.8-15.9c0-9.4-2.4-15.5-7.7-15.5
					C529.7,436,526.4,441.5,526.4,451.8z"/>
			</g>
			<g>
				<path fill="#FFFFFF" d="M563,437.4h-0.1l-6.6,3.6l-1-3.9l8.3-4.4h4.4v38h-5V437.4z"/>
			</g>
			<g>
				<path fill="#FFFFFF" d="M593,437.4h-0.1l-6.6,3.6l-1-3.9l8.3-4.4h4.4v38h-5V437.4z"/>
			</g>
			<g>
				<path fill="#FFFFFF" d="M637.1,451.2c0,12.9-4.8,20.1-13.2,20.1c-7.4,0-12.5-7-12.6-19.5c0-12.7,5.5-19.8,13.2-19.8
					C632.6,432,637.1,439.1,637.1,451.2z M616.5,451.8c0,9.9,3,15.5,7.7,15.5c5.3,0,7.8-6.1,7.8-15.9c0-9.4-2.4-15.5-7.7-15.5
					C619.8,436,616.5,441.5,616.5,451.8z"/>
			</g>
			<g>
				<path fill="#FFFFFF" d="M653.1,437.4h-0.1l-6.6,3.6l-1-3.9l8.3-4.4h4.4v38h-5V437.4z"/>
			</g>
			<g>
				<path fill="#FFFFFF" d="M697.2,451.2c0,12.9-4.8,20.1-13.2,20.1c-7.4,0-12.5-7-12.6-19.5c0-12.7,5.5-19.8,13.2-19.8
					C692.6,432,697.2,439.1,697.2,451.2z M676.5,451.8c0,9.9,3,15.5,7.7,15.5c5.3,0,7.8-6.1,7.8-15.9c0-9.4-2.4-15.5-7.7-15.5
					C679.8,436,676.5,441.5,676.5,451.8z"/>
			</g>
			<g>
				<path fill="#FFFFFF" d="M713.1,437.4H713l-6.6,3.6l-1-3.9l8.3-4.4h4.4v38h-5V437.4z"/>
			</g>
			<g>
				<path fill="#FFFFFF" d="M743.1,437.4H743l-6.6,3.6l-1-3.9l8.3-4.4h4.4v38h-5V437.4z"/>
			</g>
			<g>
				<path fill="#FFFFFF" d="M787.2,451.2c0,12.9-4.8,20.1-13.2,20.1c-7.4,0-12.5-7-12.6-19.5c0-12.7,5.5-19.8,13.2-19.8
					C782.7,432,787.2,439.1,787.2,451.2z M766.6,451.8c0,9.9,3,15.5,7.7,15.5c5.3,0,7.8-6.1,7.8-15.9c0-9.4-2.4-15.5-7.7-15.5
					C769.9,436,766.6,441.5,766.6,451.8z"/>
			</g>
			<g>
				<path fill="#FFFFFF" d="M803.2,437.4H803l-6.6,3.6l-1-3.9l8.3-4.4h4.4v38h-5V437.4z"/>
			</g>
			<g>
				<path fill="#FFFFFF" d="M833.2,437.4h-0.1l-6.6,3.6l-1-3.9l8.3-4.4h4.4v38h-5V437.4z"/>
			</g>
			<g>
				<path fill="#FFFFFF" d="M877.3,451.2c0,12.9-4.8,20.1-13.2,20.1c-7.4,0-12.5-7-12.6-19.5c0-12.7,5.5-19.8,13.2-19.8
					C872.7,432,877.3,439.1,877.3,451.2z M856.6,451.8c0,9.9,3,15.5,7.7,15.5c5.3,0,7.8-6.1,7.8-15.9c0-9.4-2.4-15.5-7.7-15.5
					C859.9,436,856.6,441.5,856.6,451.8z"/>
			</g>
			<g>
				<path fill="#FFFFFF" d="M893.2,437.4h-0.1l-6.6,3.6l-1-3.9l8.3-4.4h4.4v38h-5V437.4z"/>
			</g>
			<g>
				<path fill="#FFFFFF" d="M923.2,437.4h-0.1l-6.6,3.6l-1-3.9l8.3-4.4h4.4v38h-5V437.4z"/>
			</g>
			<g>
				<path fill="#FFFFFF" d="M967.3,451.2c0,12.9-4.8,20.1-13.2,20.1c-7.4,0-12.5-7-12.6-19.5c0-12.7,5.5-19.8,13.2-19.8
					C962.8,432,967.3,439.1,967.3,451.2z M946.7,451.8c0,9.9,3,15.5,7.7,15.5c5.3,0,7.8-6.1,7.8-15.9c0-9.4-2.4-15.5-7.7-15.5
					C950,436,946.7,441.5,946.7,451.8z"/>
			</g>
			<g>
				<path fill="#FFFFFF" d="M983.3,437.4h-0.1l-6.6,3.6l-1-3.9l8.3-4.4h4.4v38h-5V437.4z"/>
			</g>
			<g>
				<path fill="#FFFFFF" d="M1027.4,451.2c0,12.9-4.8,20.1-13.2,20.1c-7.4,0-12.5-7-12.6-19.5c0-12.7,5.5-19.8,13.2-19.8
					C1022.8,432,1027.4,439.1,1027.4,451.2z M1006.7,451.8c0,9.9,3,15.5,7.7,15.5c5.3,0,7.8-6.1,7.8-15.9c0-9.4-2.4-15.5-7.7-15.5
					C1010,436,1006.7,441.5,1006.7,451.8z"/>
			</g>
			<g>
				<path fill="#FFFFFF" d="M1043.3,437.4h-0.1l-6.6,3.6l-1-3.9l8.3-4.4h4.4v38h-5V437.4z"/>
			</g>
			<g>
				<path fill="#FFFFFF" d="M1073.3,437.4h-0.1l-6.6,3.6l-1-3.9l8.3-4.4h4.4v38h-5V437.4z"/>
			</g>
			<g>
				<path fill="#FFFFFF" d="M1117.4,451.2c0,12.9-4.8,20.1-13.2,20.1c-7.4,0-12.5-7-12.6-19.5c0-12.7,5.5-19.8,13.2-19.8
					C1112.9,432,1117.4,439.1,1117.4,451.2z M1096.8,451.8c0,9.9,3,15.5,7.7,15.5c5.3,0,7.8-6.1,7.8-15.9c0-9.4-2.4-15.5-7.7-15.5
					C1100,436,1096.8,441.5,1096.8,451.8z"/>
			</g>
			<g>
				<path fill="#FFFFFF" d="M1133.3,437.4h-0.1l-6.6,3.6l-1-3.9l8.3-4.4h4.4v38h-5V437.4z"/>
			</g>
			<g>
				<path fill="#FFFFFF" d="M1163.4,437.4h-0.1l-6.6,3.6l-1-3.9l8.3-4.4h4.4v38h-5V437.4z"/>
			</g>
			<g>
				<path fill="#FFFFFF" d="M1207.5,451.2c0,12.9-4.8,20.1-13.2,20.1c-7.4,0-12.5-7-12.6-19.5c0-12.7,5.5-19.8,13.2-19.8
					C1202.9,432,1207.5,439.1,1207.5,451.2z M1186.8,451.8c0,9.9,3,15.5,7.7,15.5c5.3,0,7.8-6.1,7.8-15.9c0-9.4-2.4-15.5-7.7-15.5
					C1190.1,436,1186.8,441.5,1186.8,451.8z"/>
			</g>
			<g>
				<path fill="#FFFFFF" d="M1237.5,451.2c0,12.9-4.8,20.1-13.2,20.1c-7.4,0-12.5-7-12.6-19.5c0-12.7,5.5-19.8,13.2-19.8
					C1232.9,432,1237.5,439.1,1237.5,451.2z M1216.8,451.8c0,9.9,3,15.5,7.7,15.5c5.3,0,7.8-6.1,7.8-15.9c0-9.4-2.4-15.5-7.7-15.5
					C1220.1,436,1216.8,441.5,1216.8,451.8z"/>
			</g>
			<g>
				<path fill="#FFFFFF" d="M1267.5,451.2c0,12.9-4.8,20.1-13.2,20.1c-7.4,0-12.5-7-12.6-19.5c0-12.7,5.5-19.8,13.2-19.8
					C1262.9,432,1267.5,439.1,1267.5,451.2z M1246.9,451.8c0,9.9,3,15.5,7.7,15.5c5.3,0,7.8-6.1,7.8-15.9c0-9.4-2.4-15.5-7.7-15.5
					C1250.1,436,1246.9,441.5,1246.9,451.8z"/>
			</g>
			<g>
				<path fill="#FFFFFF" d="M1283.4,437.4h-0.1l-6.6,3.6l-1-3.9l8.3-4.4h4.4v38h-5V437.4z"/>
			</g>
			<g>
				<path fill="#FFFFFF" d="M1327.5,451.2c0,12.9-4.8,20.1-13.2,20.1c-7.4,0-12.5-7-12.6-19.5c0-12.7,5.5-19.8,13.2-19.8
					C1323,432,1327.5,439.1,1327.5,451.2z M1306.9,451.8c0,9.9,3,15.5,7.7,15.5c5.3,0,7.8-6.1,7.8-15.9c0-9.4-2.4-15.5-7.7-15.5
					C1310.2,436,1306.9,441.5,1306.9,451.8z"/>
			</g>
			<g>
				<path fill="#FFFFFF" d="M1343.5,437.4h-0.1l-6.6,3.6l-1-3.9l8.3-4.4h4.4v38h-5V437.4z"/>
			</g>
			<g>
				<path fill="#FFFFFF" d="M1373.5,437.4h-0.1l-6.6,3.6l-1-3.9l8.3-4.4h4.4v38h-5V437.4z"/>
			</g>
		</g>
		<g>
			<g>
				<path fill="#FFFFFF" d="M36.8,524.4c0,12.9-4.8,20.1-13.2,20.1c-7.4,0-12.5-7-12.6-19.5c0-12.8,5.5-19.8,13.2-19.8
					C32.2,505.1,36.8,512.3,36.8,524.4z M16.2,525c0,9.9,3,15.5,7.7,15.5c5.3,0,7.8-6.2,7.8-15.9c0-9.4-2.4-15.5-7.7-15.5
					C19.4,509.1,16.2,514.6,16.2,525z"/>
			</g>
			<g>
				<path fill="#FFFFFF" d="M52.7,510.6h-0.1l-6.6,3.6l-1-3.9l8.3-4.4h4.4v38h-5V510.6z"/>
			</g>
			<g>
				<path fill="#FFFFFF" d="M96.8,524.4c0,12.9-4.8,20.1-13.2,20.1c-7.4,0-12.5-7-12.6-19.5c0-12.8,5.5-19.8,13.2-19.8
					C92.3,505.1,96.8,512.3,96.8,524.4z M76.2,525c0,9.9,3,15.5,7.7,15.5c5.3,0,7.8-6.2,7.8-15.9c0-9.4-2.4-15.5-7.7-15.5
					C79.5,509.1,76.2,514.6,76.2,525z"/>
			</g>
			<g>
				<path fill="#FFFFFF" d="M112.8,510.6h-0.1l-6.6,3.6l-1-3.9l8.3-4.4h4.4v38h-5V510.6z"/>
			</g>
			<g>
				<path fill="#FFFFFF" d="M142.8,510.6h-0.1l-6.6,3.6l-1-3.9l8.3-4.4h4.4v38h-5V510.6z"/>
			</g>
			<g>
				<path fill="#FFFFFF" d="M172.8,510.6h-0.1l-6.6,3.6l-1-3.9l8.3-4.4h4.4v38h-5V510.6z"/>
			</g>
			<g>
				<path fill="#FFFFFF" d="M216.9,524.4c0,12.9-4.8,20.1-13.2,20.1c-7.4,0-12.5-7-12.6-19.5c0-12.8,5.5-19.8,13.2-19.8
					C212.3,505.1,216.9,512.3,216.9,524.4z M196.3,525c0,9.9,3,15.5,7.7,15.5c5.3,0,7.8-6.2,7.8-15.9c0-9.4-2.4-15.5-7.7-15.5
					C199.5,509.1,196.3,514.6,196.3,525z"/>
			</g>
			<g>
				<path fill="#FFFFFF" d="M232.8,510.6h-0.1l-6.6,3.6l-1-3.9l8.3-4.4h4.4v38h-5V510.6z"/>
			</g>
			<g>
				<path fill="#FFFFFF" d="M276.9,524.4c0,12.9-4.8,20.1-13.2,20.1c-7.4,0-12.5-7-12.6-19.5c0-12.8,5.5-19.8,13.2-19.8
					C272.4,505.1,276.9,512.3,276.9,524.4z M256.3,525c0,9.9,3,15.5,7.7,15.5c5.3,0,7.8-6.2,7.8-15.9c0-9.4-2.4-15.5-7.7-15.5
					C259.6,509.1,256.3,514.6,256.3,525z"/>
			</g>
			<g>
				<path fill="#FFFFFF" d="M292.9,510.6h-0.1l-6.6,3.6l-1-3.9l8.3-4.4h4.4v38h-5V510.6z"/>
			</g>
			<g>
				<path fill="#FFFFFF" d="M337,524.4c0,12.9-4.8,20.1-13.2,20.1c-7.4,0-12.5-7-12.6-19.5c0-12.8,5.5-19.8,13.2-19.8
					C332.4,505.1,337,512.3,337,524.4z M316.3,525c0,9.9,3,15.5,7.7,15.5c5.3,0,7.8-6.2,7.8-15.9c0-9.4-2.4-15.5-7.7-15.5
					C319.6,509.1,316.3,514.6,316.3,525z"/>
			</g>
			<g>
				<path fill="#FFFFFF" d="M367,524.4c0,12.9-4.8,20.1-13.2,20.1c-7.4,0-12.5-7-12.6-19.5c0-12.8,5.5-19.8,13.2-19.8
					C362.4,505.1,367,512.3,367,524.4z M346.3,525c0,9.9,3,15.5,7.7,15.5c5.3,0,7.8-6.2,7.8-15.9c0-9.4-2.4-15.5-7.7-15.5
					C349.6,509.1,346.3,514.6,346.3,525z"/>
			</g>
			<g>
				<path fill="#FFFFFF" d="M382.9,510.6h-0.1l-6.6,3.6l-1-3.9l8.3-4.4h4.4v38h-5V510.6z"/>
			</g>
			<g>
				<path fill="#FFFFFF" d="M412.9,510.6h-0.1l-6.6,3.6l-1-3.9l8.3-4.4h4.4v38h-5V510.6z"/>
			</g>
			<g>
				<path fill="#FFFFFF" d="M457,524.4c0,12.9-4.8,20.1-13.2,20.1c-7.4,0-12.5-7-12.6-19.5c0-12.8,5.5-19.8,13.2-19.8
					C452.5,505.1,457,512.3,457,524.4z M436.4,525c0,9.9,3,15.5,7.7,15.5c5.3,0,7.8-6.2,7.8-15.9c0-9.4-2.4-15.5-7.7-15.5
					C439.7,509.1,436.4,514.6,436.4,525z"/>
			</g>
			<g>
				<path fill="#FFFFFF" d="M473,510.6h-0.1l-6.6,3.6l-1-3.9l8.3-4.4h4.4v38h-5V510.6z"/>
			</g>
			<g>
				<path fill="#FFFFFF" d="M503,510.6h-0.1l-6.6,3.6l-1-3.9l8.3-4.4h4.4v38h-5V510.6z"/>
			</g>
			<g>
				<path fill="#FFFFFF" d="M547.1,524.4c0,12.9-4.8,20.1-13.2,20.1c-7.4,0-12.5-7-12.6-19.5c0-12.8,5.5-19.8,13.2-19.8
					C542.5,505.1,547.1,512.3,547.1,524.4z M526.4,525c0,9.9,3,15.5,7.7,15.5c5.3,0,7.8-6.2,7.8-15.9c0-9.4-2.4-15.5-7.7-15.5
					C529.7,509.1,526.4,514.6,526.4,525z"/>
			</g>
			<g>
				<path fill="#FFFFFF" d="M563,510.6h-0.1l-6.6,3.6l-1-3.9l8.3-4.4h4.4v38h-5V510.6z"/>
			</g>
			<g>
				<path fill="#FFFFFF" d="M593,510.6h-0.1l-6.6,3.6l-1-3.9l8.3-4.4h4.4v38h-5V510.6z"/>
			</g>
			<g>
				<path fill="#FFFFFF" d="M637.1,524.4c0,12.9-4.8,20.1-13.2,20.1c-7.4,0-12.5-7-12.6-19.5c0-12.8,5.5-19.8,13.2-19.8
					C632.6,505.1,637.1,512.3,637.1,524.4z M616.5,525c0,9.9,3,15.5,7.7,15.5c5.3,0,7.8-6.2,7.8-15.9c0-9.4-2.4-15.5-7.7-15.5
					C619.8,509.1,616.5,514.6,616.5,525z"/>
			</g>
			<g>
				<path fill="#FFFFFF" d="M653.1,510.6h-0.1l-6.6,3.6l-1-3.9l8.3-4.4h4.4v38h-5V510.6z"/>
			</g>
			<g>
				<path fill="#FFFFFF" d="M683.1,510.6H683l-6.6,3.6l-1-3.9l8.3-4.4h4.4v38h-5V510.6z"/>
			</g>
			<g>
				<path fill="#FFFFFF" d="M727.2,524.4c0,12.9-4.8,20.1-13.2,20.1c-7.4,0-12.5-7-12.6-19.5c0-12.8,5.5-19.8,13.2-19.8
					C722.6,505.1,727.2,512.3,727.2,524.4z M706.6,525c0,9.9,3,15.5,7.7,15.5c5.3,0,7.8-6.2,7.8-15.9c0-9.4-2.4-15.5-7.7-15.5
					C709.8,509.1,706.6,514.6,706.6,525z"/>
			</g>
			<g>
				<path fill="#FFFFFF" d="M743.1,510.6H743l-6.6,3.6l-1-3.9l8.3-4.4h4.4v38h-5V510.6z"/>
			</g>
			<g>
				<path fill="#FFFFFF" d="M773.1,510.6H773l-6.6,3.6l-1-3.9l8.3-4.4h4.4v38h-5V510.6z"/>
			</g>
			<g>
				<path fill="#FFFFFF" d="M817.3,524.4c0,12.9-4.8,20.1-13.2,20.1c-7.4,0-12.5-7-12.6-19.5c0-12.8,5.5-19.8,13.2-19.8
					C812.7,505.1,817.3,512.3,817.3,524.4z M796.6,525c0,9.9,3,15.5,7.7,15.5c5.3,0,7.8-6.2,7.8-15.9c0-9.4-2.4-15.5-7.7-15.5
					C799.9,509.1,796.6,514.6,796.6,525z"/>
			</g>
			<g>
				<path fill="#FFFFFF" d="M833.2,510.6h-0.1l-6.6,3.6l-1-3.9l8.3-4.4h4.4v38h-5V510.6z"/>
			</g>
			<g>
				<path fill="#FFFFFF" d="M863.2,510.6h-0.1l-6.6,3.6l-1-3.9l8.3-4.4h4.4v38h-5V510.6z"/>
			</g>
			<g>
				<path fill="#FFFFFF" d="M907.3,524.4c0,12.9-4.8,20.1-13.2,20.1c-7.4,0-12.5-7-12.6-19.5c0-12.8,5.5-19.8,13.2-19.8
					C902.7,505.1,907.3,512.3,907.3,524.4z M886.6,525c0,9.9,3,15.5,7.7,15.5c5.3,0,7.8-6.2,7.8-15.9c0-9.4-2.4-15.5-7.7-15.5
					C889.9,509.1,886.6,514.6,886.6,525z"/>
			</g>
			<g>
				<path fill="#FFFFFF" d="M923.2,510.6h-0.1l-6.6,3.6l-1-3.9l8.3-4.4h4.4v38h-5V510.6z"/>
			</g>
			<g>
				<path fill="#FFFFFF" d="M953.2,510.6h-0.1l-6.6,3.6l-1-3.9l8.3-4.4h4.4v38h-5V510.6z"/>
			</g>
			<g>
				<path fill="#FFFFFF" d="M997.4,524.4c0,12.9-4.8,20.1-13.2,20.1c-7.4,0-12.5-7-12.6-19.5c0-12.8,5.5-19.8,13.2-19.8
					C992.8,505.1,997.4,512.3,997.4,524.4z M976.7,525c0,9.9,3,15.5,7.7,15.5c5.3,0,7.8-6.2,7.8-15.9c0-9.4-2.4-15.5-7.7-15.5
					C980,509.1,976.7,514.6,976.7,525z"/>
			</g>
			<g>
				<path fill="#FFFFFF" d="M1027.4,524.4c0,12.9-4.8,20.1-13.2,20.1c-7.4,0-12.5-7-12.6-19.5c0-12.8,5.5-19.8,13.2-19.8
					C1022.8,505.1,1027.4,512.3,1027.4,524.4z M1006.7,525c0,9.9,3,15.5,7.7,15.5c5.3,0,7.8-6.2,7.8-15.9c0-9.4-2.4-15.5-7.7-15.5
					C1010,509.1,1006.7,514.6,1006.7,525z"/>
			</g>
			<g>
				<path fill="#FFFFFF" d="M1043.3,510.6h-0.1l-6.6,3.6l-1-3.9l8.3-4.4h4.4v38h-5V510.6z"/>
			</g>
			<g>
				<path fill="#FFFFFF" d="M1087.4,524.4c0,12.9-4.8,20.1-13.2,20.1c-7.4,0-12.5-7-12.6-19.5c0-12.8,5.5-19.8,13.2-19.8
					C1082.8,505.1,1087.4,512.3,1087.4,524.4z M1066.8,525c0,9.9,3,15.5,7.7,15.5c5.3,0,7.8-6.2,7.8-15.9c0-9.4-2.4-15.5-7.7-15.5
					C1070,509.1,1066.8,514.6,1066.8,525z"/>
			</g>
			<g>
				<path fill="#FFFFFF" d="M1103.3,510.6h-0.1l-6.6,3.6l-1-3.9l8.3-4.4h4.4v38h-5V510.6z"/>
			</g>
			<g>
				<path fill="#FFFFFF" d="M1133.3,510.6h-0.1l-6.6,3.6l-1-3.9l8.3-4.4h4.4v38h-5V510.6z"/>
			</g>
			<g>
				<path fill="#FFFFFF" d="M1177.5,524.4c0,12.9-4.8,20.1-13.2,20.1c-7.4,0-12.5-7-12.6-19.5c0-12.8,5.5-19.8,13.2-19.8
					C1172.9,505.1,1177.5,512.3,1177.5,524.4z M1156.8,525c0,9.9,3,15.5,7.7,15.5c5.3,0,7.8-6.2,7.8-15.9c0-9.4-2.4-15.5-7.7-15.5
					C1160.1,509.1,1156.8,514.6,1156.8,525z"/>
			</g>
			<g>
				<path fill="#FFFFFF" d="M1193.4,510.6h-0.1l-6.6,3.6l-1-3.9l8.3-4.4h4.4v38h-5V510.6z"/>
			</g>
			<g>
				<path fill="#FFFFFF" d="M1223.4,510.6h-0.1l-6.6,3.6l-1-3.9l8.3-4.4h4.4v38h-5V510.6z"/>
			</g>
			<g>
				<path fill="#FFFFFF" d="M1267.5,524.4c0,12.9-4.8,20.1-13.2,20.1c-7.4,0-12.5-7-12.6-19.5c0-12.8,5.5-19.8,13.2-19.8
					C1262.9,505.1,1267.5,512.3,1267.5,524.4z M1246.9,525c0,9.9,3,15.5,7.7,15.5c5.3,0,7.8-6.2,7.8-15.9c0-9.4-2.4-15.5-7.7-15.5
					C1250.1,509.1,1246.9,514.6,1246.9,525z"/>
			</g>
			<g>
				<path fill="#FFFFFF" d="M1283.4,510.6h-0.1l-6.6,3.6l-1-3.9l8.3-4.4h4.4v38h-5V510.6z"/>
			</g>
			<g>
				<path fill="#FFFFFF" d="M1313.4,510.6h-0.1l-6.6,3.6l-1-3.9l8.3-4.4h4.4v38h-5V510.6z"/>
			</g>
			<g>
				<path fill="#FFFFFF" d="M1357.6,524.4c0,12.9-4.8,20.1-13.2,20.1c-7.4,0-12.5-7-12.6-19.5c0-12.8,5.5-19.8,13.2-19.8
					C1353,505.1,1357.6,512.3,1357.6,524.4z M1336.9,525c0,9.9,3,15.5,7.7,15.5c5.3,0,7.8-6.2,7.8-15.9c0-9.4-2.4-15.5-7.7-15.5
					C1340.2,509.1,1336.9,514.6,1336.9,525z"/>
			</g>
			<g>
				<path fill="#FFFFFF" d="M1387.6,524.4c0,12.9-4.8,20.1-13.2,20.1c-7.4,0-12.5-7-12.6-19.5c0-12.8,5.5-19.8,13.2-19.8
					C1383,505.1,1387.6,512.3,1387.6,524.4z M1366.9,525c0,9.9,3,15.5,7.7,15.5c5.3,0,7.8-6.2,7.8-15.9c0-9.4-2.4-15.5-7.7-15.5
					C1370.2,509.1,1366.9,514.6,1366.9,525z"/>
			</g>
		</g>
		<g>
			<g>
				<path fill="#FFFFFF" d="M36.8,597.5c0,12.9-4.8,20.1-13.2,20.1c-7.4,0-12.5-7-12.6-19.5c0-12.8,5.5-19.8,13.2-19.8
					C32.2,578.3,36.8,585.4,36.8,597.5z M16.2,598.1c0,9.9,3,15.5,7.7,15.5c5.3,0,7.8-6.1,7.8-15.9c0-9.4-2.4-15.5-7.7-15.5
					C19.4,582.3,16.2,587.8,16.2,598.1z"/>
			</g>
			<g>
				<path fill="#FFFFFF" d="M66.8,597.5c0,12.9-4.8,20.1-13.2,20.1c-7.4,0-12.5-7-12.6-19.5c0-12.8,5.5-19.8,13.2-19.8
					C62.3,578.3,66.8,585.4,66.8,597.5z M46.2,598.1c0,9.9,3,15.5,7.7,15.5c5.3,0,7.8-6.1,7.8-15.9c0-9.4-2.4-15.5-7.7-15.5
					C49.4,582.3,46.2,587.8,46.2,598.1z"/>
			</g>
			<g>
				<path fill="#FFFFFF" d="M82.7,583.7h-0.1l-6.6,3.6l-1-3.9l8.3-4.5h4.4v38h-5V583.7z"/>
			</g>
			<g>
				<path fill="#FFFFFF" d="M126.9,597.5c0,12.9-4.8,20.1-13.2,20.1c-7.4,0-12.5-7-12.6-19.5c0-12.8,5.5-19.8,13.2-19.8
					C122.3,578.3,126.9,585.4,126.9,597.5z M106.2,598.1c0,9.9,3,15.5,7.7,15.5c5.3,0,7.8-6.1,7.8-15.9c0-9.4-2.4-15.5-7.7-15.5
					C109.5,582.3,106.2,587.8,106.2,598.1z"/>
			</g>
			<g>
				<path fill="#FFFFFF" d="M156.9,597.5c0,12.9-4.8,20.1-13.2,20.1c-7.4,0-12.5-7-12.6-19.5c0-12.8,5.5-19.8,13.2-19.8
					C152.3,578.3,156.9,585.4,156.9,597.5z M136.2,598.1c0,9.9,3,15.5,7.7,15.5c5.3,0,7.8-6.1,7.8-15.9c0-9.4-2.4-15.5-7.7-15.5
					C139.5,582.3,136.2,587.8,136.2,598.1z"/>
			</g>
			<g>
				<path fill="#FFFFFF" d="M186.9,597.5c0,12.9-4.8,20.1-13.2,20.1c-7.4,0-12.5-7-12.6-19.5c0-12.8,5.5-19.8,13.2-19.8
					C182.3,578.3,186.9,585.4,186.9,597.5z M166.2,598.1c0,9.9,3,15.5,7.7,15.5c5.3,0,7.8-6.1,7.8-15.9c0-9.4-2.4-15.5-7.7-15.5
					C169.5,582.3,166.2,587.8,166.2,598.1z"/>
			</g>
			<g>
				<path fill="#FFFFFF" d="M202.8,583.7h-0.1l-6.6,3.6l-1-3.9l8.3-4.5h4.4v38h-5V583.7z"/>
			</g>
			<g>
				<path fill="#FFFFFF" d="M232.8,583.7h-0.1l-6.6,3.6l-1-3.9l8.3-4.5h4.4v38h-5V583.7z"/>
			</g>
			<g>
				<path fill="#FFFFFF" d="M262.8,583.7h-0.1l-6.6,3.6l-1-3.9l8.3-4.5h4.4v38h-5V583.7z"/>
			</g>
			<g>
				<path fill="#FFFFFF" d="M307,597.5c0,12.9-4.8,20.1-13.2,20.1c-7.4,0-12.5-7-12.6-19.5c0-12.8,5.5-19.8,13.2-19.8
					C302.4,578.3,307,585.4,307,597.5z M286.3,598.1c0,9.9,3,15.5,7.7,15.5c5.3,0,7.8-6.1,7.8-15.9c0-9.4-2.4-15.5-7.7-15.5
					C289.6,582.3,286.3,587.8,286.3,598.1z"/>
			</g>
			<g>
				<path fill="#FFFFFF" d="M337,597.5c0,12.9-4.8,20.1-13.2,20.1c-7.4,0-12.5-7-12.6-19.5c0-12.8,5.5-19.8,13.2-19.8
					C332.4,578.3,337,585.4,337,597.5z M316.3,598.1c0,9.9,3,15.5,7.7,15.5c5.3,0,7.8-6.1,7.8-15.9c0-9.4-2.4-15.5-7.7-15.5
					C319.6,582.3,316.3,587.8,316.3,598.1z"/>
			</g>
			<g>
				<path fill="#FFFFFF" d="M352.9,583.7h-0.1l-6.6,3.6l-1-3.9l8.3-4.5h4.4v38h-5V583.7z"/>
			</g>
			<g>
				<path fill="#FFFFFF" d="M382.9,583.7h-0.1l-6.6,3.6l-1-3.9l8.3-4.5h4.4v38h-5V583.7z"/>
			</g>
			<g>
				<path fill="#FFFFFF" d="M427,597.5c0,12.9-4.8,20.1-13.2,20.1c-7.4,0-12.5-7-12.6-19.5c0-12.8,5.5-19.8,13.2-19.8
					C422.5,578.3,427,585.4,427,597.5z M406.4,598.1c0,9.9,3,15.5,7.7,15.5c5.3,0,7.8-6.1,7.8-15.9c0-9.4-2.4-15.5-7.7-15.5
					C409.6,582.3,406.4,587.8,406.4,598.1z"/>
			</g>
			<g>
				<path fill="#FFFFFF" d="M442.9,583.7h-0.1l-6.6,3.6l-1-3.9l8.3-4.5h4.4v38h-5V583.7z"/>
			</g>
			<g>
				<path fill="#FFFFFF" d="M473,583.7h-0.1l-6.6,3.6l-1-3.9l8.3-4.5h4.4v38h-5V583.7z"/>
			</g>
			<g>
				<path fill="#FFFFFF" d="M503,583.7h-0.1l-6.6,3.6l-1-3.9l8.3-4.5h4.4v38h-5V583.7z"/>
			</g>
			<g>
				<path fill="#FFFFFF" d="M547.1,597.5c0,12.9-4.8,20.1-13.2,20.1c-7.4,0-12.5-7-12.6-19.5c0-12.8,5.5-19.8,13.2-19.8
					C542.5,578.3,547.1,585.4,547.1,597.5z M526.4,598.1c0,9.9,3,15.5,7.7,15.5c5.3,0,7.8-6.1,7.8-15.9c0-9.4-2.4-15.5-7.7-15.5
					C529.7,582.3,526.4,587.8,526.4,598.1z"/>
			</g>
			<g>
				<path fill="#FFFFFF" d="M577.1,597.5c0,12.9-4.8,20.1-13.2,20.1c-7.4,0-12.5-7-12.6-19.5c0-12.8,5.5-19.8,13.2-19.8
					C572.6,578.3,577.1,585.4,577.1,597.5z M556.5,598.1c0,9.9,3,15.5,7.7,15.5c5.3,0,7.8-6.1,7.8-15.9c0-9.4-2.4-15.5-7.7-15.5
					C559.7,582.3,556.5,587.8,556.5,598.1z"/>
			</g>
			<g>
				<path fill="#FFFFFF" d="M593,583.7h-0.1l-6.6,3.6l-1-3.9l8.3-4.5h4.4v38h-5V583.7z"/>
			</g>
			<g>
				<path fill="#FFFFFF" d="M637.1,597.5c0,12.9-4.8,20.1-13.2,20.1c-7.4,0-12.5-7-12.6-19.5c0-12.8,5.5-19.8,13.2-19.8
					C632.6,578.3,637.1,585.4,637.1,597.5z M616.5,598.1c0,9.9,3,15.5,7.7,15.5c5.3,0,7.8-6.1,7.8-15.9c0-9.4-2.4-15.5-7.7-15.5
					C619.8,582.3,616.5,587.8,616.5,598.1z"/>
			</g>
			<g>
				<path fill="#FFFFFF" d="M653.1,583.7h-0.1l-6.6,3.6l-1-3.9l8.3-4.5h4.4v38h-5V583.7z"/>
			</g>
			<g>
				<path fill="#FFFFFF" d="M697.2,597.5c0,12.9-4.8,20.1-13.2,20.1c-7.4,0-12.5-7-12.6-19.5c0-12.8,5.5-19.8,13.2-19.8
					C692.6,578.3,697.2,585.4,697.2,597.5z M676.5,598.1c0,9.9,3,15.5,7.7,15.5c5.3,0,7.8-6.1,7.8-15.9c0-9.4-2.4-15.5-7.7-15.5
					C679.8,582.3,676.5,587.8,676.5,598.1z"/>
			</g>
			<g>
				<path fill="#FFFFFF" d="M713.1,583.7H713l-6.6,3.6l-1-3.9l8.3-4.5h4.4v38h-5V583.7z"/>
			</g>
			<g>
				<path fill="#FFFFFF" d="M757.2,597.5c0,12.9-4.8,20.1-13.2,20.1c-7.4,0-12.5-7-12.6-19.5c0-12.8,5.5-19.8,13.2-19.8
					C752.7,578.3,757.2,585.4,757.2,597.5z M736.6,598.1c0,9.9,3.1,15.5,7.7,15.5c5.3,0,7.8-6.1,7.8-15.9c0-9.4-2.4-15.5-7.7-15.5
					C739.8,582.3,736.6,587.8,736.6,598.1z"/>
			</g>
			<g>
				<path fill="#FFFFFF" d="M773.1,583.7H773l-6.6,3.6l-1-3.9l8.3-4.5h4.4v38h-5V583.7z"/>
			</g>
			<g>
				<path fill="#FFFFFF" d="M817.3,597.5c0,12.9-4.8,20.1-13.2,20.1c-7.4,0-12.5-7-12.6-19.5c0-12.8,5.5-19.8,13.2-19.8
					C812.7,578.3,817.3,585.4,817.3,597.5z M796.6,598.1c0,9.9,3,15.5,7.7,15.5c5.3,0,7.8-6.1,7.8-15.9c0-9.4-2.4-15.5-7.7-15.5
					C799.9,582.3,796.6,587.8,796.6,598.1z"/>
			</g>
			<g>
				<path fill="#FFFFFF" d="M847.3,597.5c0,12.9-4.8,20.1-13.2,20.1c-7.4,0-12.5-7-12.6-19.5c0-12.8,5.5-19.8,13.2-19.8
					C842.7,578.3,847.3,585.4,847.3,597.5z M826.6,598.1c0,9.9,3,15.5,7.7,15.5c5.3,0,7.8-6.1,7.8-15.9c0-9.4-2.4-15.5-7.7-15.5
					C829.9,582.3,826.6,587.8,826.6,598.1z"/>
			</g>
			<g>
				<path fill="#FFFFFF" d="M863.2,583.7h-0.1l-6.6,3.6l-1-3.9l8.3-4.5h4.4v38h-5V583.7z"/>
			</g>
			<g>
				<path fill="#FFFFFF" d="M907.3,597.5c0,12.9-4.8,20.1-13.2,20.1c-7.4,0-12.5-7-12.6-19.5c0-12.8,5.5-19.8,13.2-19.8
					C902.7,578.3,907.3,585.4,907.3,597.5z M886.6,598.1c0,9.9,3,15.5,7.7,15.5c5.3,0,7.8-6.1,7.8-15.9c0-9.4-2.4-15.5-7.7-15.5
					C889.9,582.3,886.6,587.8,886.6,598.1z"/>
			</g>
			<g>
				<path fill="#FFFFFF" d="M923.2,583.7h-0.1l-6.6,3.6l-1-3.9l8.3-4.5h4.4v38h-5V583.7z"/>
			</g>
			<g>
				<path fill="#FFFFFF" d="M953.2,583.7h-0.1l-6.6,3.6l-1-3.9l8.3-4.5h4.4v38h-5V583.7z"/>
			</g>
			<g>
				<path fill="#FFFFFF" d="M997.4,597.5c0,12.9-4.8,20.1-13.2,20.1c-7.4,0-12.5-7-12.6-19.5c0-12.8,5.5-19.8,13.2-19.8
					C992.8,578.3,997.4,585.4,997.4,597.5z M976.7,598.1c0,9.9,3,15.5,7.7,15.5c5.3,0,7.8-6.1,7.8-15.9c0-9.4-2.4-15.5-7.7-15.5
					C980,582.3,976.7,587.8,976.7,598.1z"/>
			</g>
			<g>
				<path fill="#FFFFFF" d="M1027.4,597.5c0,12.9-4.8,20.1-13.2,20.1c-7.4,0-12.5-7-12.6-19.5c0-12.8,5.5-19.8,13.2-19.8
					C1022.8,578.3,1027.4,585.4,1027.4,597.5z M1006.7,598.1c0,9.9,3,15.5,7.7,15.5c5.3,0,7.8-6.1,7.8-15.9c0-9.4-2.4-15.5-7.7-15.5
					C1010,582.3,1006.7,587.8,1006.7,598.1z"/>
			</g>
			<g>
				<path fill="#FFFFFF" d="M1057.4,597.5c0,12.9-4.8,20.1-13.2,20.1c-7.4,0-12.5-7-12.6-19.5c0-12.8,5.5-19.8,13.2-19.8
					C1052.8,578.3,1057.4,585.4,1057.4,597.5z M1036.7,598.1c0,9.9,3,15.5,7.7,15.5c5.3,0,7.8-6.1,7.8-15.9c0-9.4-2.4-15.5-7.7-15.5
					C1040,582.3,1036.7,587.8,1036.7,598.1z"/>
			</g>
			<g>
				<path fill="#FFFFFF" d="M1073.3,583.7h-0.1l-6.6,3.6l-1-3.9l8.3-4.5h4.4v38h-5V583.7z"/>
			</g>
			<g>
				<path fill="#FFFFFF" d="M1103.3,583.7h-0.1l-6.6,3.6l-1-3.9l8.3-4.5h4.4v38h-5V583.7z"/>
			</g>
			<g>
				<path fill="#FFFFFF" d="M1133.3,583.7h-0.1l-6.6,3.6l-1-3.9l8.3-4.5h4.4v38h-5V583.7z"/>
			</g>
			<g>
				<path fill="#FFFFFF" d="M1177.5,597.5c0,12.9-4.8,20.1-13.2,20.1c-7.4,0-12.5-7-12.6-19.5c0-12.8,5.5-19.8,13.2-19.8
					C1172.9,578.3,1177.5,585.4,1177.5,597.5z M1156.8,598.1c0,9.9,3,15.5,7.7,15.5c5.3,0,7.8-6.1,7.8-15.9c0-9.4-2.4-15.5-7.7-15.5
					C1160.1,582.3,1156.8,587.8,1156.8,598.1z"/>
			</g>
			<g>
				<path fill="#FFFFFF" d="M1193.4,583.7h-0.1l-6.6,3.6l-1-3.9l8.3-4.5h4.4v38h-5V583.7z"/>
			</g>
			<g>
				<path fill="#FFFFFF" d="M1223.4,583.7h-0.1l-6.6,3.6l-1-3.9l8.3-4.5h4.4v38h-5V583.7z"/>
			</g>
			<g>
				<path fill="#FFFFFF" d="M1267.5,597.5c0,12.9-4.8,20.1-13.2,20.1c-7.4,0-12.5-7-12.6-19.5c0-12.8,5.5-19.8,13.2-19.8
					C1262.9,578.3,1267.5,585.4,1267.5,597.5z M1246.9,598.1c0,9.9,3,15.5,7.7,15.5c5.3,0,7.8-6.1,7.8-15.9c0-9.4-2.4-15.5-7.7-15.5
					C1250.1,582.3,1246.9,587.8,1246.9,598.1z"/>
			</g>
			<g>
				<path fill="#FFFFFF" d="M1283.4,583.7h-0.1l-6.6,3.6l-1-3.9l8.3-4.5h4.4v38h-5V583.7z"/>
			</g>
			<g>
				<path fill="#FFFFFF" d="M1327.5,597.5c0,12.9-4.8,20.1-13.2,20.1c-7.4,0-12.5-7-12.6-19.5c0-12.8,5.5-19.8,13.2-19.8
					C1323,578.3,1327.5,585.4,1327.5,597.5z M1306.9,598.1c0,9.9,3,15.5,7.7,15.5c5.3,0,7.8-6.1,7.8-15.9c0-9.4-2.4-15.5-7.7-15.5
					C1310.2,582.3,1306.9,587.8,1306.9,598.1z"/>
			</g>
			<g>
				<path fill="#FFFFFF" d="M1343.5,583.7h-0.1l-6.6,3.6l-1-3.9l8.3-4.5h4.4v38h-5V583.7z"/>
			</g>
			<g>
				<path fill="#FFFFFF" d="M1387.6,597.5c0,12.9-4.8,20.1-13.2,20.1c-7.4,0-12.5-7-12.6-19.5c0-12.8,5.5-19.8,13.2-19.8
					C1383,578.3,1387.6,585.4,1387.6,597.5z M1366.9,598.1c0,9.9,3,15.5,7.7,15.5c5.3,0,7.8-6.1,7.8-15.9c0-9.4-2.4-15.5-7.7-15.5
					C1370.2,582.3,1366.9,587.8,1366.9,598.1z"/>
			</g>
		</g>
	</g>
	<g>
		<path fill="#FF8581" d="M1002.2,282.2c0-14.7-12-26.7-26.7-26.7H423c-14.7,0-26.7,12-26.7,26.7v35.6h605.9V282.2z"/>
		<path d="M1002.2,319.8H396.4c-1.1,0-2.1-0.9-2.1-2.1v-35.6c0-15.9,12.9-28.8,28.8-28.8h552.5c15.9,0,28.8,12.9,28.8,28.8v35.6
			C1004.3,318.9,1003.4,319.8,1002.2,319.8z M398.4,315.7h601.7v-33.5c0-13.6-11-24.6-24.6-24.6H423c-13.6,0-24.6,11-24.6,24.6
			V315.7z"/>
	</g>
	<g>
		<rect x="609.7" y="268.8" fill="#FFFFFF" width="363.9" height="35.6"/>
		<path d="M973.7,306.5H609.7c-1.1,0-2.1-0.9-2.1-2.1v-35.6c0-1.1,0.9-2.1,2.1-2.1h363.9c1.1,0,2.1,0.9,2.1,2.1v35.6
			C975.7,305.5,974.8,306.5,973.7,306.5z M611.8,302.3h359.8v-31.4H611.8V302.3z"/>
	</g>
	<g>
		<circle fill="#FFFFFF" cx="430.7" cy="286.6" r="15.7"/>
		<path d="M430.6,304.4c-9.8,0-17.8-8-17.8-17.8c0-9.8,8-17.8,17.8-17.8c9.8,0,17.8,8,17.8,17.8
			C448.4,296.4,440.5,304.4,430.6,304.4z M430.6,273c-7.5,0-13.6,6.1-13.6,13.6c0,7.5,6.1,13.6,13.6,13.6c7.5,0,13.6-6.1,13.6-13.6
			C444.3,279.1,438.2,273,430.6,273z"/>
	</g>
	<g>
		<path fill="#FFFFFF" d="M509.3,286.6c0,8.7-7,15.7-15.7,15.7c-8.7,0-15.7-7-15.7-15.7c0-8.7,7-15.7,15.7-15.7
			C502.2,270.9,509.3,277.9,509.3,286.6z"/>
		<path d="M493.6,304.4c-9.8,0-17.8-8-17.8-17.8c0-9.8,8-17.8,17.8-17.8c9.8,0,17.8,8,17.8,17.8
			C511.4,296.4,503.4,304.4,493.6,304.4z M493.6,273c-7.5,0-13.6,6.1-13.6,13.6c0,7.5,6.1,13.6,13.6,13.6c7.5,0,13.6-6.1,13.6-13.6
			C507.2,279.1,501.1,273,493.6,273z"/>
	</g>
	<g>
		<path fill="#F1F2F2" d="M396.4,317.7v345.1h605.9V317.7H396.4z M975.6,636.1H423V344.4h552.5V636.1z"/>
		<path d="M1002.2,664.9H396.4c-1.1,0-2.1-0.9-2.1-2.1V317.7c0-1.1,0.9-2.1,2.1-2.1h605.9c1.1,0,2.1,0.9,2.1,2.1v345.1
			C1004.3,664,1003.4,664.9,1002.2,664.9z M398.4,660.7h601.7V319.8H398.4V660.7z M975.6,638.2H423c-1.1,0-2.1-0.9-2.1-2.1V344.4
			c0-1.1,0.9-2.1,2.1-2.1h552.5c1.1,0,2.1,0.9,2.1,2.1v291.7C977.6,637.3,976.7,638.2,975.6,638.2z M425.1,634.1h548.4V346.5H425.1
			V634.1z"/>
	</g>
	<g>
		<g>
			<path fill="#BCBEC0" d="M1016.9,700.3l47.9,47.9l32.3-32.3l-47.9-47.9c-4.7,5.8-9.8,11.5-15.3,17
				C1028.4,690.5,1022.7,695.6,1016.9,700.3z"/>
			<path d="M1064.8,750.3c-0.6,0-1.1-0.2-1.5-0.6l-47.9-47.9c-0.4-0.4-0.6-1-0.6-1.6c0-0.6,0.3-1.1,0.8-1.5
				c5.9-4.8,11.6-9.9,16.8-15.2c5.3-5.3,10.4-11,15.2-16.8c0.4-0.5,0.9-0.7,1.5-0.8c0.6-0.1,1.2,0.2,1.6,0.6l47.9,47.9
				c0.8,0.8,0.8,2.1,0,2.9l-32.3,32.3C1065.8,750,1065.3,750.3,1064.8,750.3z M1020,700.4l44.8,44.8l29.4-29.4l-44.8-44.8
				c-4.4,5.3-9.1,10.5-14,15.4C1030.5,691.3,1025.4,696,1020,700.4z"/>
		</g>
		<g>
			<line fill="#FFFFFF" x1="1055" y1="757.9" x2="1106.9" y2="706.1"/>
			<path d="M1055,760c-0.5,0-1.1-0.2-1.5-0.6c-0.8-0.8-0.8-2.1,0-2.9l51.9-51.9c0.8-0.8,2.1-0.8,2.9,0c0.8,0.8,0.8,2.1,0,2.9
				l-51.9,51.9C1056.1,759.8,1055.5,760,1055,760z"/>
		</g>
		<g>
			<path fill="#FF8581" d="M1060.8,752.2l84.2,84.2c11.1,11.1,29.2,11.1,40.3,0c11.1-11.1,11.1-29.2,0-40.3l-84.2-84.2L1060.8,752.2
				z"/>
			<path d="M1165.2,846.8L1165.2,846.8c-8.2,0-15.9-3.2-21.6-9l-84.2-84.2c-0.8-0.8-0.8-2.1,0-2.9l40.3-40.3c0.8-0.8,2.2-0.8,2.9,0
				l84.2,84.3c5.8,5.8,9,13.5,9,21.6c0,8.2-3.2,15.9-9,21.6C1181,843.7,1173.3,846.8,1165.2,846.8z M1063.7,752.2l82.8,82.8
				c5,5,11.6,7.7,18.7,7.7c7.1,0,13.7-2.8,18.7-7.7c5-5,7.7-11.6,7.7-18.7c0-7.1-2.8-13.7-7.7-18.7l-82.8-82.8L1063.7,752.2z"/>
		</g>
		<g>
			<line fill="#FFFFFF" x1="1087.2" y1="725.7" x2="1169.2" y2="807.7"/>
			<path d="M1169.2,809.8c-0.5,0-1.1-0.2-1.5-0.6l-82-82c-0.8-0.8-0.8-2.1,0-2.9s2.1-0.8,2.9,0l82,82c0.8,0.8,0.8,2.1,0,2.9
				C1170.2,809.6,1169.7,809.8,1169.2,809.8z"/>
		</g>
		<g>
			<path fill="#FFFFFF" d="M1034.4,495.1c-52.6-52.6-137.8-52.6-190.4,0c-52.6,52.6-52.6,137.8,0,190.4
				c47.1,47.1,120.3,52,172.8,14.8c6.2-4.4,12-9.3,17.6-14.8c5.5-5.5,10.4-11.4,14.8-17.6C1086.4,615.4,1081.5,542.2,1034.4,495.1z
				 M1016.5,667.6c-42.7,42.7-111.8,42.7-154.5,0c-42.7-42.7-42.7-111.8,0-154.5c42.7-42.7,111.8-42.7,154.5,0
				C1059.1,555.7,1059.1,624.9,1016.5,667.6z"/>
			<path d="M939.2,727C939.2,727,939.2,727,939.2,727c-36.5,0-70.8-14.2-96.6-40c-53.3-53.3-53.3-140,0-193.3
				c25.8-25.8,60.2-40,96.7-40c36.5,0,70.8,14.2,96.7,40c47.2,47.2,53.6,121,15,175.5c-4.5,6.4-9.6,12.4-15,17.8
				c-5.3,5.4-11.3,10.4-17.8,15C995,718.4,967.7,727,939.2,727z M939.2,457.8c-35.4,0-68.7,13.8-93.7,38.8
				c-51.7,51.7-51.7,135.8,0,187.5c25,25,58.3,38.8,93.7,38.8h0c27.6,0,54.1-8.4,76.5-24.3c6.3-4.5,12.1-9.3,17.3-14.6
				c5.3-5.3,10.2-11.1,14.6-17.3c37.4-52.8,31.3-124.4-14.6-170.2C1007.9,471.5,974.6,457.8,939.2,457.8z M939.2,701.6
				c-29.7,0-57.7-11.6-78.7-32.6c-43.4-43.4-43.4-114,0-157.4c21-21,49-32.6,78.7-32.6c29.7,0,57.7,11.6,78.7,32.6
				c43.4,43.4,43.4,114,0,157.4C996.9,690,969,701.6,939.2,701.6z M939.2,483.2c-28.6,0-55.5,11.1-75.8,31.4
				c-41.8,41.8-41.8,109.8,0,151.5c20.2,20.2,47.2,31.4,75.8,31.4s55.5-11.1,75.8-31.4c41.8-41.8,41.8-109.8,0-151.5
				C994.8,494.3,967.9,483.2,939.2,483.2z"/>
		</g>
		<g opacity="0.3">
			<path fill="#FFFFFF" d="M862,513.1c-42.7,42.7-42.7,111.8,0,154.5c42.7,42.7,111.8,42.7,154.5,0c42.7-42.7,42.7-111.8,0-154.5
				C973.8,470.4,904.7,470.4,862,513.1z"/>
			<path d="M939.2,701.6c-29.7,0-57.7-11.6-78.7-32.6c-43.4-43.4-43.4-114,0-157.4c21-21,49-32.6,78.7-32.6
				c29.7,0,57.7,11.6,78.7,32.6c43.4,43.4,43.4,114,0,157.4C996.9,690,969,701.6,939.2,701.6z M939.2,483.2
				c-28.6,0-55.5,11.1-75.8,31.4c-41.8,41.8-41.8,109.8,0,151.5c20.2,20.2,47.2,31.4,75.8,31.4s55.5-11.1,75.8-31.4
				c41.8-41.8,41.8-109.8,0-151.5C994.8,494.3,967.9,483.2,939.2,483.2z"/>
		</g>
	</g>
	<g>
		<g>
			<path fill="#FFFFFF" d="M343.8,295.1H77.9c-8.8,0-15.9-7.1-15.9-15.9V110c0-8.8,7.1-15.9,15.9-15.9h265.9
				c8.8,0,15.9,7.1,15.9,15.9v169.2C359.7,287.9,352.6,295.1,343.8,295.1z M77.9,98.2c-6.5,0-11.7,5.3-11.7,11.7v169.2
				c0,6.5,5.3,11.7,11.7,11.7h265.9c6.5,0,11.7-5.3,11.7-11.7V110c0-6.5-5.3-11.7-11.7-11.7H77.9z"/>
		</g>
		<g>
			<g>
				<path fill="#FFFFFF" d="M147.1,218.2H97.5l-1.6-3.4l50.6-73.7l5.4-0.2v72.7h12v4.7h-12v28.1h-5V218.2z M147.2,149.6l-44.4,64.1
					h44.4V149.6z"/>
			</g>
			<g>
				<path fill="#FFFFFF" d="M183.5,157.2c5.8-12.9,15.1-19.4,27.9-19.4c12.9,0,22.3,6.5,28.1,19.4c4.2,9.6,6.4,21.7,6.4,36.3
					c0,14.7-2.1,26.9-6.4,36.5c-5.7,12.8-15.1,19.3-28.1,19.3c-12.8,0-22.1-6.5-27.9-19.4c-4.2-9.6-6.4-21.7-6.4-36.3
					C177.2,178.9,179.3,166.8,183.5,157.2z M187.4,226.3c4.9,12.3,12.9,18.5,24.2,18.5c11.3,0,19.3-6.2,24.2-18.5
					c3.2-8.3,4.8-19.2,4.8-32.8c0-13.4-1.6-24.3-4.8-32.6c-4.9-12.3-12.9-18.5-24.2-18.5c-11.4,0-19.5,6.1-24.2,18.3
					c-3.3,8.7-5,19.6-5,32.8C182.5,206.6,184.1,217.6,187.4,226.3z M198.6,210.9l21.3-35.4l3.7,2.3l-21.3,35.4L198.6,210.9z"/>
			</g>
			<g>
				<path fill="#FFFFFF" d="M308.8,218.2h-49.5l-1.6-3.4l50.6-73.7l5.4-0.2v72.7h12v4.7h-12v28.1h-5V218.2z M309,149.6l-44.4,64.1
					H309V149.6z"/>
			</g>
		</g>
		<g>
			<rect x="316.2" y="78.6" fill="#39CDFF" width="50.6" height="50.7"/>
			<path fill="#FFFFFF" d="M366.8,131.3h-50.6c-1.1,0-2.1-0.9-2.1-2.1V78.6c0-1.1,0.9-2.1,2.1-2.1h50.6c1.1,0,2.1,0.9,2.1,2.1v50.7
				C368.9,130.4,368,131.3,366.8,131.3z M318.3,127.2h46.5V80.7h-46.5V127.2z"/>
		</g>
		<g>
			<path fill="#FFFFFF" d="M354.9,119.4c-0.5,0-1.1-0.2-1.5-0.6L326.7,92c-0.8-0.8-0.8-2.1,0-2.9c0.8-0.8,2.1-0.8,2.9,0l26.8,26.8
				c0.8,0.8,0.8,2.1,0,2.9C356,119.2,355.4,119.4,354.9,119.4z"/>
		</g>
		<g>
			<path fill="#FFFFFF" d="M328.1,119.4c-0.5,0-1.1-0.2-1.5-0.6c-0.8-0.8-0.8-2.1,0-2.9l26.8-26.8c0.8-0.8,2.1-0.8,2.9,0
				s0.8,2.1,0,2.9l-26.8,26.8C329.2,119.2,328.7,119.4,328.1,119.4z"/>
		</g>
		<g>
			<path fill="#FFFFFF" d="M155,269.7h-28.2c-1.1,0-2.1-0.9-2.1-2.1c0-1.1,0.9-2.1,2.1-2.1H155c1.1,0,2.1,0.9,2.1,2.1
				C157.1,268.8,156.2,269.7,155,269.7z"/>
		</g>
		<g>
			<path fill="#FFFFFF" d="M299.5,269.7H174c-1.1,0-2.1-0.9-2.1-2.1c0-1.1,0.9-2.1,2.1-2.1h125.5c1.1,0,2.1,0.9,2.1,2.1
				C301.6,268.8,300.6,269.7,299.5,269.7z"/>
		</g>
	</g>
	<g>
		<g>
			<g>
				<path fill="#FFFFFF" d="M364.2,845.3H69.6c-1.1,0-2.1-0.9-2.1-2.1V696.6c0-8.8,7.2-15.9,15.9-15.9h266.8
					c8.8,0,15.9,7.1,15.9,15.9v146.6C366.3,844.3,365.3,845.3,364.2,845.3z M71.7,841.1h290.4V696.6c0-6.5-5.3-11.8-11.8-11.8H83.5
					c-6.5,0-11.8,5.3-11.8,11.8V841.1z"/>
			</g>
			<g>
				<path fill="#FFFFFF" d="M350.3,882.3H83.5c-8.8,0-15.9-7.2-15.9-15.9v-23.2c0-1.1,0.9-2.1,2.1-2.1h294.6c1.1,0,2.1,0.9,2.1,2.1
					v23.2C366.3,875.2,359.1,882.3,350.3,882.3z M71.7,845.3v21.1c0,6.5,5.3,11.8,11.8,11.8h266.8c6.5,0,11.8-5.3,11.8-11.8v-21.1
					H71.7z"/>
			</g>
		</g>
		<g>
			<path fill="#FFFFFF" d="M145.3,791.5c-0.5,0-1.1-0.2-1.5-0.6l-26.5-26.5c-0.8-0.8-0.8-2.1,0-2.9l26.5-26.5c0.8-0.8,2.1-0.8,2.9,0
				c0.8,0.8,0.8,2.1,0,2.9l-25,25l25,25c0.8,0.8,0.8,2.1,0,2.9C146.3,791.3,145.8,791.5,145.3,791.5z"/>
		</g>
		<g>
			<path fill="#FFFFFF" d="M288.6,791.5c-0.5,0-1.1-0.2-1.5-0.6c-0.8-0.8-0.8-2.1,0-2.9l25-25l-25-25c-0.8-0.8-0.8-2.1,0-2.9
				c0.8-0.8,2.1-0.8,2.9,0l26.5,26.5c0.8,0.8,0.8,2.1,0,2.9L290,790.9C289.6,791.3,289.1,791.5,288.6,791.5z"/>
		</g>
		<g>
			<path fill="#FFFFFF" d="M228.7,791.5h-67.6c-1.1,0-2.1-0.9-2.1-2.1c0-1.1,0.9-2.1,2.1-2.1h67.6c1.1,0,2.1,0.9,2.1,2.1
				C230.7,790.6,229.8,791.5,228.7,791.5z"/>
		</g>
		<g>
			<path fill="#FFFFFF" d="M248,791.5c-0.3,0-0.5,0-0.8-0.2c-1.1-0.4-1.6-1.6-1.1-2.7l21.8-52.9c0.4-1.1,1.7-1.6,2.7-1.1
				c1.1,0.4,1.6,1.6,1.1,2.7l-21.8,52.9C249.6,791,248.8,791.5,248,791.5z"/>
		</g>
		<g>
			<path fill="#FFFFFF" d="M216.9,871c-5.1,0-9.3-4.2-9.3-9.3c0-5.1,4.2-9.3,9.3-9.3c5.1,0,9.3,4.2,9.3,9.3
				C226.2,866.8,222,871,216.9,871z M216.9,856.6c-2.8,0-5.1,2.3-5.1,5.1c0,2.8,2.3,5.1,5.1,5.1s5.1-2.3,5.1-5.1
				C222,858.9,219.7,856.6,216.9,856.6z"/>
		</g>
		<g>
			<path fill="#FFFFFF" d="M246.1,863.8h-15.5c-1.1,0-2.1-0.9-2.1-2.1s0.9-2.1,2.1-2.1h15.5c1.1,0,2.1,0.9,2.1,2.1
				S247.2,863.8,246.1,863.8z"/>
		</g>
		<g>
			<path fill="#FFFFFF" d="M203.2,863.8h-15.5c-1.1,0-2.1-0.9-2.1-2.1s0.9-2.1,2.1-2.1h15.5c1.2,0,2.1,0.9,2.1,2.1
				S204.3,863.8,203.2,863.8z"/>
		</g>
		<g>
			<path fill="#FFFFFF" d="M243.7,902.3h-53.5c-0.7,0-1.3-0.3-1.7-0.9c-0.4-0.5-0.5-1.3-0.3-1.9l6.9-20c0.3-0.8,1.1-1.4,2-1.4h39.7
				c0.9,0,1.7,0.6,2,1.4l6.9,20c0.2,0.6,0.1,1.3-0.3,1.9C245,902,244.3,902.3,243.7,902.3z M193.1,898.2h47.7l-5.5-15.9h-36.7
				L193.1,898.2z"/>
		</g>
		<g>
			<path fill="#FFFFFF" d="M272.3,907.9H161.5c-1.1,0-2.1-0.9-2.1-2.1s0.9-2.1,2.1-2.1h110.9c1.1,0,2.1,0.9,2.1,2.1
				S273.5,907.9,272.3,907.9z"/>
		</g>
	</g>
	<g>
		<g>
			<path fill="#FFFFFF" d="M757.2,914.3h-271c-8.9,0-16.2-7.2-16.2-16.2V727c0-1.1,0.9-2.1,2.1-2.1h299.1c1.1,0,2.1,0.9,2.1,2.1
				v171.1C773.3,907,766.1,914.3,757.2,914.3z M474.2,729.1v169.1c0,6.6,5.4,12,12,12h271c6.6,0,12-5.4,12-12V729.1H474.2z"/>
		</g>
		<g>
			<path fill="#FFFFFF" d="M784.1,729.1H459.2c-1.1,0-2.1-0.9-2.1-2.1v-34.8c0-1.1,0.9-2.1,2.1-2.1h324.9c1.1,0,2.1,0.9,2.1,2.1V727
				C786.2,728.1,785.3,729.1,784.1,729.1z M461.3,724.9h320.8v-30.6H461.3V724.9z"/>
		</g>
		<g>
			<path fill="#FFFFFF" d="M475.8,719.9c-5.7,0-10.3-4.6-10.3-10.3c0-5.7,4.6-10.3,10.3-10.3s10.3,4.6,10.3,10.3
				C486.1,715.3,481.5,719.9,475.8,719.9z M475.8,703.5c-3.4,0-6.1,2.8-6.1,6.1c0,3.4,2.8,6.1,6.1,6.1c3.4,0,6.1-2.8,6.1-6.1
				C481.9,706.2,479.2,703.5,475.8,703.5z"/>
		</g>
		<g>
			<path fill="#FFFFFF" d="M505.4,719.9c-5.7,0-10.3-4.6-10.3-10.3c0-5.7,4.6-10.3,10.3-10.3c5.7,0,10.3,4.6,10.3,10.3
				C515.6,715.3,511,719.9,505.4,719.9z M505.4,703.5c-3.4,0-6.1,2.8-6.1,6.1c0,3.4,2.8,6.1,6.1,6.1c3.4,0,6.1-2.8,6.1-6.1
				C511.5,706.2,508.7,703.5,505.4,703.5z"/>
		</g>
		<g>
			<path fill="#FFFFFF" d="M585.5,711.7h-58.9c-1.1,0-2.1-0.9-2.1-2.1s0.9-2.1,2.1-2.1h58.9c1.1,0,2.1,0.9,2.1,2.1
				S586.6,711.7,585.5,711.7z"/>
		</g>
		<g>
			<path fill="#FFFFFF" d="M614.8,711.7h-16.1c-1.1,0-2.1-0.9-2.1-2.1s0.9-2.1,2.1-2.1h16.1c1.1,0,2.1,0.9,2.1,2.1
				S615.9,711.7,614.8,711.7z"/>
		</g>
		<g>
			<g>
				<path fill="#FFFFFF" d="M772.4,720.9c-0.5,0-1.1-0.2-1.5-0.6l-18.5-18.5c-0.8-0.8-0.8-2.1,0-2.9c0.8-0.8,2.1-0.8,2.9,0
					l18.5,18.5c0.8,0.8,0.8,2.1,0,2.9C773.5,720.7,772.9,720.9,772.4,720.9z"/>
			</g>
			<g>
				<path fill="#FFFFFF" d="M753.9,720.9c-0.5,0-1.1-0.2-1.5-0.6c-0.8-0.8-0.8-2.1,0-2.9l18.5-18.5c0.8-0.8,2.1-0.8,2.9,0
					c0.8,0.8,0.8,2.1,0,2.9l-18.5,18.5C755,720.7,754.5,720.9,753.9,720.9z"/>
			</g>
		</g>
		<g>
			<path fill="#FFFFFF" d="M629.3,763.9H491.6c-1.1,0-2.1-0.9-2.1-2.1v-14.7c0-1.1,0.9-2.1,2.1-2.1h137.7c1.1,0,2.1,0.9,2.1,2.1
				v14.7C631.4,763,630.4,763.9,629.3,763.9z M493.7,759.7h133.5v-10.5H493.7V759.7z"/>
		</g>
		<g>
			<path fill="#FFFFFF" d="M737.9,801.4H491.6c-1.1,0-2.1-0.9-2.1-2.1v-14.7c0-1.1,0.9-2.1,2.1-2.1h246.3c1.1,0,2.1,0.9,2.1,2.1
				v14.7C740,800.5,739.1,801.4,737.9,801.4z M493.7,797.3h242.2v-10.5H493.7V797.3z"/>
		</g>
		<g>
			<path fill="#FFFFFF" d="M560.5,839h-68.8c-1.1,0-2.1-0.9-2.1-2.1v-14.7c0-1.1,0.9-2.1,2.1-2.1h68.8c1.1,0,2.1,0.9,2.1,2.1v14.7
				C562.5,838,561.6,839,560.5,839z M493.7,834.8h64.7v-10.5h-64.7V834.8z"/>
		</g>
		<g>
			<path fill="#FFFFFF" d="M701,839H576.1c-1.1,0-2.1-0.9-2.1-2.1v-14.7c0-1.1,0.9-2.1,2.1-2.1H701c1.2,0,2.1,0.9,2.1,2.1v14.7
				C703.1,838,702.1,839,701,839z M578.2,834.8h120.8v-10.5H578.2V834.8z"/>
		</g>
		<g>
			<path fill="#FFFFFF" d="M629.3,876.5H491.6c-1.1,0-2.1-0.9-2.1-2.1v-14.7c0-1.1,0.9-2.1,2.1-2.1h137.7c1.1,0,2.1,0.9,2.1,2.1
				v14.7C631.4,875.6,630.4,876.5,629.3,876.5z M493.7,872.3h133.5v-10.5H493.7V872.3z"/>
		</g>
		<g>
			<path fill="#FFFFFF" d="M678.5,763.9h-36.2c-1.1,0-2.1-0.9-2.1-2.1v-14.7c0-1.1,0.9-2.1,2.1-2.1h36.2c1.1,0,2.1,0.9,2.1,2.1v14.7
				C680.6,763,679.7,763.9,678.5,763.9z M644.4,759.7h32v-10.5h-32V759.7z"/>
		</g>
	</g>
	<g>
		<g>
			<path fill="#FFFFFF" d="M1289.7,162.8h-281.6c-1.1,0-2.1-0.9-2.1-2.1V79.9c0-1.1,0.9-2.1,2.1-2.1h281.6c1.1,0,2.1,0.9,2.1,2.1
				v80.9C1291.8,161.9,1290.8,162.8,1289.7,162.8z M1010.2,158.6h277.4V81.9h-277.4V158.6z"/>
		</g>
		<g>
			<path fill="#FFFFFF" d="M1032.7,149.8c-1.1,0-2.1-0.9-2.1-2.1V92.9c0-1.1,0.9-2.1,2.1-2.1s2.1,0.9,2.1,2.1v54.9
				C1034.8,148.9,1033.8,149.8,1032.7,149.8z"/>
		</g>
		<g>
			<g>
				<path fill="#39CDFF" d="M1270.6,213.2l20.6,20.6l13.9-13.9l-20.6-20.6c-2,2.5-4.2,4.9-6.6,7.3
					C1275.5,208.9,1273.1,211.1,1270.6,213.2z"/>
				<path fill="#FFFFFF" d="M1291.2,235.9c-0.6,0-1.1-0.2-1.5-0.6l-20.6-20.6c-0.4-0.4-0.6-1-0.6-1.6c0-0.6,0.3-1.1,0.8-1.5
					c2.5-2,4.9-4.2,7.2-6.5c2.2-2.2,4.4-4.7,6.5-7.2c0.4-0.5,0.9-0.7,1.5-0.8c0.6,0,1.2,0.2,1.6,0.6l20.6,20.6
					c0.8,0.8,0.8,2.1,0,2.9l-13.9,13.9C1292.3,235.7,1291.8,235.9,1291.2,235.9z M1273.7,213.3l17.6,17.6l11-11l-17.6-17.6
					c-1.7,2-3.5,3.9-5.3,5.7C1277.6,209.8,1275.6,211.6,1273.7,213.3z"/>
			</g>
			<g>
				<line fill="#FFFFFF" x1="1287" y1="238" x2="1309.4" y2="215.6"/>
				<path fill="#FFFFFF" d="M1287,240.1c-0.5,0-1.1-0.2-1.5-0.6c-0.8-0.8-0.8-2.1,0-2.9l22.4-22.4c0.8-0.8,2.1-0.8,2.9,0
					c0.8,0.8,0.8,2.1,0,2.9l-22.4,22.4C1288.1,239.9,1287.5,240.1,1287,240.1z"/>
			</g>
			<g>
				<path fill="#39CDFF" d="M1289.5,235.5l36.3,36.3c4.8,4.8,12.6,4.8,17.4,0c4.8-4.8,4.8-12.6,0-17.4l-36.3-36.3L1289.5,235.5z"/>
				<path fill="#FFFFFF" d="M1334.5,277.5c-3.8,0-7.5-1.5-10.2-4.2L1288,237c-0.8-0.8-0.8-2.1,0-2.9l17.4-17.4
					c0.8-0.8,2.2-0.8,2.9,0l36.3,36.3c2.7,2.7,4.2,6.3,4.2,10.2s-1.5,7.4-4.2,10.2C1341.9,276,1338.3,277.5,1334.5,277.5z
					 M1292.4,235.5l34.8,34.8c3.9,3.9,10.6,3.9,14.4,0c1.9-1.9,3-4.5,3-7.2s-1.1-5.3-3-7.2l-34.8-34.8L1292.4,235.5z"/>
			</g>
			<g>
				<line fill="#FFFFFF" x1="1300.9" y1="224.1" x2="1336.2" y2="259.4"/>
				<path fill="#FFFFFF" d="M1336.2,261.5c-0.5,0-1.1-0.2-1.5-0.6l-35.3-35.3c-0.8-0.8-0.8-2.1,0-2.9c0.8-0.8,2.1-0.8,2.9,0
					l35.3,35.3c0.8,0.8,0.8,2.1,0,2.9C1337.3,261.3,1336.8,261.5,1336.2,261.5z"/>
			</g>
			<g>
				<path fill="#39CDFF" d="M1278.2,124.7c-22.7-22.7-59.4-22.7-82.1,0c-22.7,22.7-22.7,59.4,0,82.1c20.3,20.3,51.8,22.4,74.5,6.4
					c2.7-1.9,5.2-4,7.6-6.4c2.4-2.4,4.5-4.9,6.4-7.6C1300.5,176.6,1298.4,145,1278.2,124.7z M1270.4,199
					c-18.4,18.4-48.2,18.4-66.6,0c-18.4-18.4-18.4-48.2,0-66.6c18.4-18.4,48.2-18.4,66.6,0C1288.8,150.8,1288.8,180.7,1270.4,199z"
					/>
				<path fill="#FFFFFF" d="M1237.1,225.9C1237.1,225.9,1237.1,225.9,1237.1,225.9c-16,0-31.1-6.2-42.5-17.6
					c-23.4-23.4-23.4-61.6,0-85c11.4-11.4,26.4-17.6,42.5-17.6c16.1,0,31.2,6.3,42.5,17.6c20.8,20.8,23.5,53.2,6.6,77.2
					c-2,2.8-4.2,5.4-6.6,7.8c-2.4,2.4-5,4.6-7.8,6.6C1261.6,222.1,1249.6,225.9,1237.1,225.9z M1237.1,109.8
					c-14.9,0-29,5.8-39.6,16.4c-21.8,21.8-21.8,57.3,0,79.1c10.6,10.6,24.6,16.4,39.5,16.4c0,0,0,0,0,0c11.7,0,22.8-3.5,32.3-10.2
					c2.6-1.9,5.1-3.9,7.3-6.1c2.2-2.2,4.3-4.7,6.1-7.3c15.8-22.3,13.2-52.5-6.1-71.8C1266.1,115.6,1252.1,109.8,1237.1,109.8z
					 M1237.1,214.9c-13.1,0-25.5-5.1-34.8-14.4c-9.3-9.3-14.4-21.6-14.4-34.8c0-13.1,5.1-25.5,14.4-34.8
					c9.3-9.3,21.6-14.4,34.8-14.4s25.5,5.1,34.8,14.4c9.3,9.3,14.4,21.6,14.4,34.8c0,13.1-5.1,25.5-14.4,34.8
					C1262.6,209.8,1250.3,214.9,1237.1,214.9z M1237.1,120.8c-12,0-23.3,4.7-31.8,13.2c-8.5,8.5-13.2,19.8-13.2,31.8
					c0,12,4.7,23.3,13.2,31.8c8.5,8.5,19.8,13.2,31.8,13.2s23.3-4.7,31.8-13.2c8.5-8.5,13.2-19.8,13.2-31.8c0-12-4.7-23.3-13.2-31.8
					C1260.4,125.4,1249.1,120.8,1237.1,120.8z"/>
			</g>
		</g>
		<g>
			<path fill="#FFFFFF" d="M1092.8,188.4h-84.6c-1.1,0-2.1-0.9-2.1-2.1s0.9-2.1,2.1-2.1h84.6c1.1,0,2.1,0.9,2.1,2.1
				S1093.9,188.4,1092.8,188.4z"/>
		</g>
		<g>
			<path fill="#FFFFFF" d="M1137.7,188.4h-27.1c-1.1,0-2.1-0.9-2.1-2.1s0.9-2.1,2.1-2.1h27.1c1.1,0,2.1,0.9,2.1,2.1
				S1138.9,188.4,1137.7,188.4z"/>
		</g>
		<g>
			<path fill="#FFFFFF" d="M1035.2,263.2h-27.1c-1.1,0-2.1-0.9-2.1-2.1c0-1.1,0.9-2.1,2.1-2.1h27.1c1.1,0,2.1,0.9,2.1,2.1
				C1037.3,262.2,1036.4,263.2,1035.2,263.2z"/>
		</g>
		<g>
			<path fill="#FFFFFF" d="M1167.5,188.4h-15.2c-1.1,0-2.1-0.9-2.1-2.1s0.9-2.1,2.1-2.1h15.2c1.2,0,2.1,0.9,2.1,2.1
				S1168.6,188.4,1167.5,188.4z"/>
		</g>
		<g>
			<path fill="#FFFFFF" d="M1137.7,214.4h-129.6c-1.1,0-2.1-0.9-2.1-2.1c0-1.1,0.9-2.1,2.1-2.1h129.6c1.1,0,2.1,0.9,2.1,2.1
				C1139.8,213.5,1138.9,214.4,1137.7,214.4z"/>
		</g>
		<g>
			<path fill="#FFFFFF" d="M1179.1,240.1h-171c-1.1,0-2.1-0.9-2.1-2.1c0-1.2,0.9-2.1,2.1-2.1h171c1.1,0,2.1,0.9,2.1,2.1
				C1181.2,239.2,1180.2,240.1,1179.1,240.1z"/>
		</g>
	</g>
	<g>
		<path fill="#FFFFFF" d="M1011.9,892.3H861.8c-1.1,0-2.1-0.9-2.1-2.1V778.3c0-1.2,0.9-2.1,2.1-2.1h150.1c1.1,0,2.1,0.9,2.1,2.1
			v111.9C1014,891.4,1013,892.3,1011.9,892.3z M863.9,888.2h145.9V780.4H863.9V888.2z"/>
	</g>
	<g>
		<path fill="#FFFFFF" d="M487,207.5c-0.5,0-1.1-0.2-1.5-0.6l-48.7-48.7c-0.8-0.8-0.8-2.1,0-2.9l48.7-48.7c0.8-0.8,2.1-0.8,2.9,0
			c0.8,0.8,0.8,2.1,0,2.9l-47.2,47.2l47.2,47.2c0.8,0.8,0.8,2.1,0,2.9C488.1,207.3,487.6,207.5,487,207.5z"/>
	</g>
	<g>
		<path fill="#FFFFFF" d="M902.7,207.5c-0.5,0-1.1-0.2-1.5-0.6c-0.8-0.8-0.8-2.1,0-2.9l47.2-47.2l-47.2-47.2c-0.8-0.8-0.8-2.1,0-2.9
			c0.8-0.8,2.1-0.8,2.9,0l48.7,48.7c0.8,0.8,0.8,2.1,0,2.9l-48.7,48.7C903.8,207.3,903.2,207.5,902.7,207.5z"/>
	</g>
	<g>
		<path fill="#FFFFFF" d="M516.1,207.2c-0.3,0-0.6-0.1-0.9-0.2c-1-0.5-1.5-1.7-1-2.8l45.3-97.4c0.5-1,1.7-1.5,2.8-1
			c1,0.5,1.5,1.7,1,2.8L517.9,206C517.6,206.7,516.8,207.2,516.1,207.2z"/>
	</g>
	<g>
		<g>
			<g>
				<path fill="#FFFFFF" d="M619.4,199.7c-11.5,0-20.2-4.3-26.1-12.7c-5-7.2-7.5-17-7.5-29c0-12.1,2.6-22,7.8-29.5
					c5.9-8.5,14.8-12.8,26.5-12.8c8,0,14.8,2.2,20.3,6.6c4,3.2,6.8,7.1,8.4,11.6l0,0.1l-3.7,1.9l0-0.1
					c-3.7-11.1-12.1-16.5-25.7-16.5c-10.1,0-17.6,4-22.8,12.4c-4.4,7-6.6,15.8-6.6,26.4c0,10.6,2.1,19.4,6.4,26.1
					c5.1,8.2,12.5,12.2,22.5,12.2c8,0,14.5-2.2,19.5-6.5c3.9-3.4,6.4-7.6,7.7-12.9l0-0.2l3.5,1.8l0,0.1c-1.4,5.5-4.2,10.1-8.3,13.7
					C635.7,197.2,628.3,199.7,619.4,199.7z"/>
			</g>
		</g>
		<g>
			<g>
				<path fill="#FFFFFF" d="M697.9,199.8c-11.9,0-21.1-4.2-27.3-12.4c-5.6-7.4-8.4-17.3-8.4-29.6c0-12.1,2.8-22.1,8.4-29.6
					c6.3-8.4,15.4-12.6,27.3-12.6c11.9,0,21.1,4.2,27.4,12.5c5.6,7.5,8.4,17.5,8.4,29.7c0,12.3-2.8,22.3-8.4,29.6
					C719,195.6,709.8,199.8,697.9,199.8z M697.9,119.2c-10.7,0-18.7,3.8-24.3,11.7c-4.8,6.8-7.3,15.9-7.3,26.9
					c0,11,2.4,20.1,7.3,26.9c5.5,7.7,13.6,11.6,24.3,11.6c10.7,0,18.9-3.9,24.4-11.6c4.8-6.8,7.2-15.8,7.2-26.9
					c0-11-2.5-20.1-7.4-26.9C716.5,123,708.6,119.2,697.9,119.2z"/>
			</g>
		</g>
		<g>
			<g>
				<path fill="#FFFFFF" d="M748.4,198.1v-80.7H767c12,0,20.5,1.3,25.9,3.9c11.8,6,17.9,18.2,17.9,36.5c0,18.5-6,30.8-17.9,36.4
					c-5.7,2.6-14.4,3.9-25.9,3.9H748.4z M752.5,194.5h15.4c10.7,0,18.8-1.3,23.9-4c9.8-5.2,14.8-16.2,14.8-32.7
					c0-13.4-3.6-23.4-10.6-29.8c-3.3-3-7.8-5-13.3-6c-1.8-0.3-3.9-0.5-6.3-0.7c-2.3-0.2-5.2-0.2-8.6-0.2h-15.4V194.5z"/>
			</g>
		</g>
		<g>
			<g>
				<polygon fill="#FFFFFF" points="825.5,198.1 825.5,117.4 874.9,117.4 874.9,121.2 829.6,121.2 829.6,154.2 865.5,154.2 
					865.5,157.9 829.6,157.9 829.6,194.3 876,194.3 876,198.1 				"/>
			</g>
		</g>
	</g>
	<g>
		<path fill="#FFFFFF" d="M1336.2,721.6h-197.9c-1.1,0-2.1-0.9-2.1-2.1v-49.3c0-1.2,0.9-2.1,2.1-2.1h197.9c1.1,0,2.1,0.9,2.1,2.1
			v49.3C1338.3,720.7,1337.4,721.6,1336.2,721.6z M1140.4,717.4h193.7v-45.1h-193.7V717.4z"/>
	</g>
	<g>
		<path fill="#FFFFFF" d="M1289.5,786.8c-1.1,0-2.1-0.9-2.1-2.1v-65.2c0-1.1,0.9-2.1,2.1-2.1s2.1,0.9,2.1,2.1v65.2
			C1291.6,785.8,1290.6,786.8,1289.5,786.8z"/>
	</g>
	<g>
		<path fill="#FFFFFF" d="M1215.7,869.2c-1.2,0-2.1-0.9-2.1-2.1V719.5c0-1.1,0.9-2.1,2.1-2.1c1.1,0,2.1,0.9,2.1,2.1v147.6
			C1217.8,868.2,1216.8,869.2,1215.7,869.2z"/>
	</g>
	<g>
		<path fill="#FFFFFF" d="M1312.4,832.6h-45.7c-1.1,0-2.1-0.9-2.1-2.1v-45.7c0-1.2,0.9-2.1,2.1-2.1h45.7c1.1,0,2.1,0.9,2.1,2.1v45.7
			C1314.5,831.7,1313.5,832.6,1312.4,832.6z M1268.7,828.5h41.6v-41.6h-41.6V828.5z"/>
	</g>
	<g>
		<path fill="#FFFFFF" d="M1238.5,915.2h-45.7c-1.2,0-2.1-0.9-2.1-2.1v-45.8c0-1.1,0.9-2.1,2.1-2.1h45.7c1.1,0,2.1,0.9,2.1,2.1v45.8
			C1240.6,914.3,1239.7,915.2,1238.5,915.2z M1194.9,911h41.6v-41.6h-41.6V911z"/>
	</g>
	<g>
		<path fill="#FFFFFF" d="M1165,892.7h-40.2c-0.6,0-1.1-0.2-1.5-0.6l-55.8-55.8h-55.7c-1.1,0-2.1-0.9-2.1-2.1s0.9-2.1,2.1-2.1h56.5
			c0.6,0,1.1,0.2,1.5,0.6l55.8,55.8h39.3c1.1,0,2.1,0.9,2.1,2.1S1166.1,892.7,1165,892.7z"/>
	</g>
	<g>
		<path fill="#FFFFFF" d="M1148,909.6c-0.5,0-1.1-0.2-1.5-0.6c-0.8-0.8-0.8-2.1,0-2.9l15.8-15.8l-15.8-15.8c-0.8-0.8-0.8-2.1,0-2.9
			c0.8-0.8,2.1-0.8,2.9,0l17.3,17.3c0.8,0.8,0.8,2.1,0,2.9l-17.3,17.3C1149.1,909.4,1148.6,909.6,1148,909.6z"/>
	</g>
	<g>
		<path fill="#FFFFFF" d="M1149.5,712c-0.5,0-1.1-0.2-1.5-0.6c-0.8-0.8-0.8-2.1,0-2.9l30.2-30.2c0.8-0.8,2.1-0.8,2.9,0
			c0.8,0.8,0.8,2.1,0,2.9l-30.2,30.2C1150.5,711.8,1150,712,1149.5,712z"/>
	</g>
	<g>
		<path fill="#FFFFFF" d="M967.3,866.8h-61c-1.1,0-2.1-0.9-2.1-2.1v-60.9c0-1.2,0.9-2.1,2.1-2.1h61c1.1,0,2.1,0.9,2.1,2.1v60.9
			C969.4,865.9,968.5,866.8,967.3,866.8z M908.5,862.7h56.8v-56.8h-56.8V862.7z"/>
	</g>
	<g>
		<path fill="#FFFFFF" d="M952.2,851.7h-30.6c-1.1,0-2.1-0.9-2.1-2.1V819c0-1.1,0.9-2.1,2.1-2.1h30.6c1.2,0,2.1,0.9,2.1,2.1v30.6
			C954.2,850.7,953.3,851.7,952.2,851.7z M923.6,847.5h26.4V821h-26.4V847.5z"/>
	</g>
	<g>
		<path fill="#FFFFFF" d="M906.4,817h-20.8c-1.2,0-2.1-0.9-2.1-2.1s0.9-2.1,2.1-2.1h20.8c1.1,0,2.1,0.9,2.1,2.1S907.5,817,906.4,817
			z"/>
	</g>
	<g>
		<path fill="#FFFFFF" d="M906.4,836.3h-20.8c-1.2,0-2.1-0.9-2.1-2.1s0.9-2.1,2.1-2.1h20.8c1.1,0,2.1,0.9,2.1,2.1
			S907.5,836.3,906.4,836.3z"/>
	</g>
	<g>
		<path fill="#FFFFFF" d="M906.4,855.7h-20.8c-1.2,0-2.1-0.9-2.1-2.1c0-1.2,0.9-2.1,2.1-2.1h20.8c1.1,0,2.1,0.9,2.1,2.1
			C908.5,854.8,907.5,855.7,906.4,855.7z"/>
	</g>
	<g>
		<path fill="#FFFFFF" d="M988.1,817h-20.8c-1.2,0-2.1-0.9-2.1-2.1s0.9-2.1,2.1-2.1h20.8c1.1,0,2.1,0.9,2.1,2.1S989.3,817,988.1,817
			z"/>
	</g>
	<g>
		<path fill="#FFFFFF" d="M988.1,836.3h-20.8c-1.2,0-2.1-0.9-2.1-2.1s0.9-2.1,2.1-2.1h20.8c1.1,0,2.1,0.9,2.1,2.1
			S989.3,836.3,988.1,836.3z"/>
	</g>
	<g>
		<path fill="#FFFFFF" d="M988.1,855.7h-20.8c-1.2,0-2.1-0.9-2.1-2.1c0-1.2,0.9-2.1,2.1-2.1h20.8c1.1,0,2.1,0.9,2.1,2.1
			C990.2,854.8,989.3,855.7,988.1,855.7z"/>
	</g>
	<g>
		<path fill="#FFFFFF" d="M1210.9,903.1c-0.5,0-1.1-0.2-1.5-0.6l-10.8-10.8c-0.8-0.8-0.8-2.1,0-2.9s2.1-0.8,2.9,0l9.3,9.3l18.8-18.8
			c0.8-0.8,2.1-0.8,2.9,0c0.8,0.8,0.8,2.1,0,2.9l-20.3,20.3C1212,902.9,1211.5,903.1,1210.9,903.1z"/>
	</g>
	<g>
		<g>
			<path fill="#FFFFFF" d="M1301.3,821.6c-0.5,0-1.1-0.2-1.5-0.6l-23.6-23.6c-0.8-0.8-0.8-2.1,0-2.9c0.8-0.8,2.1-0.8,2.9,0
				l23.6,23.7c0.8,0.8,0.8,2.1,0,2.9C1302.4,821.4,1301.9,821.6,1301.3,821.6z"/>
		</g>
		<g>
			<path fill="#FFFFFF" d="M1277.7,821.6c-0.5,0-1.1-0.2-1.5-0.6c-0.8-0.8-0.8-2.1,0-2.9l23.6-23.7c0.8-0.8,2.1-0.8,2.9,0
				c0.8,0.8,0.8,2.1,0,2.9l-23.6,23.6C1278.7,821.4,1278.2,821.6,1277.7,821.6z"/>
		</g>
	</g>
</g>
</svg>
