<?xml version="1.0" encoding="utf-8"?>
<!-- Generator: Adobe Illustrator 16.0.0, SVG Export Plug-In . SVG Version: 6.00 Build 0)  -->
<!DOCTYPE svg PUBLIC "-//W3C//DTD SVG 1.1//EN" "http://www.w3.org/Graphics/SVG/1.1/DTD/svg11.dtd">
<svg version="1.1" id="Layer_1" xmlns="http://www.w3.org/2000/svg" xmlns:xlink="http://www.w3.org/1999/xlink" x="0px" y="0px"
	 width="1400px" height="980px" viewBox="0 0 1400 980" enable-background="new 0 0 1400 980" xml:space="preserve">
<g>
	<g>
		<g>
			<rect fill="#FFFFFF" width="1400" height="980"/>
		</g>
	</g>
	<g>
		<path fill="#6D6E71" d="M990.8,650.7c0,16.4-13.3,29.8-29.8,29.8H463.2c-16.5,0-29.8-13.3-29.8-29.8V329.2
			c0-16.4,13.3-29.8,29.8-29.8H961c16.5,0,29.8,13.3,29.8,29.8V650.7z"/>
		<path d="M961,683.5H463.2c-18.1,0-32.8-14.7-32.8-32.8V329.2c0-18.1,14.7-32.8,32.8-32.8H961c18.1,0,32.8,14.7,32.8,32.8v321.5
			C993.8,668.8,979.1,683.5,961,683.5z M463.2,302.5c-14.8,0-26.8,12-26.8,26.8v321.5c0,14.8,12,26.8,26.8,26.8H961
			c14.8,0,26.8-12,26.8-26.8V329.2c0-14.8-12-26.8-26.8-26.8H463.2z"/>
	</g>
	<g>
		<rect x="460" y="330.8" fill="#84D3FF" width="499.5" height="318.5"/>
		<path d="M959.4,652.3H460c-1.7,0-3-1.3-3-3V330.8c0-1.7,1.4-3,3-3h499.5c1.7,0,3,1.4,3,3v318.5
			C962.5,650.9,961.1,652.3,959.4,652.3z M463,646.2h493.4V333.8H463V646.2z"/>
	</g>
	<g>
		<polygon fill="#84D3FF" points="464,691.6 449.6,691.6 318.8,691.6 302.4,691.6 302.4,729.6 464,729.6 		"/>
		<path d="M464,732.6H302.4c-1.7,0-3-1.4-3-3v-38c0-1.7,1.4-3,3-3H464c1.7,0,3,1.4,3,3v38C467,731.3,465.6,732.6,464,732.6z
			 M305.4,726.6h155.6v-32H305.4V726.6z"/>
	</g>
	<g>
		<path fill="#FFE6D5" d="M453.9,669l0.1-0.1c0.1-0.1,8.1-9.3,8.1-20.4V514.1c0-10.6-8.6-19.2-19.2-19.2c-10.6,0-19.1,8.6-19.1,19.2
			v44.2l-0.3,0.5c-0.9,1.5-3.8,4.9-9.7,4.9c0,0,0,0,0,0c0,0-0.2,0-0.5,0c-1.4,0-4.9-0.3-7.2-2.4c-1.5-1.4-2.3-3.4-2.3-6L403.8,451
			l0-0.2c0.2-1,2.4-10.3,9.6-15.1l35.2-38.1l0.2-0.1c2.9-2,17.1-13,17.1-33.9c0-2.9-0.3-6-0.9-9.1l-0.3-0.7c-0.4-0.5-2-2.5-4.6-3
			c-0.4-0.1-0.9-0.1-1.3-0.1c-1.7,0-3.5,0.6-5.3,1.9l-91.2,74.3c-0.5,0.4-11.9,9.5-11.9,23v175.9c0,0.1,0.6,11.8-3.5,19.4
			l-18.9,46.5h112.4L453.9,669z"/>
		<path d="M440.3,694.6H327.8c-1,0-1.9-0.5-2.5-1.3c-0.6-0.8-0.7-1.9-0.3-2.8l18.9-46.5c3.8-7.1,3.2-18,3.2-18.1l0-176
			c0-15,12.6-25,13.1-25.4l91.2-74.2c3.2-2.2,6.2-2.9,9.1-2.4c3.6,0.7,5.8,3.2,6.5,4.2c0.2,0.2,0.3,0.4,0.4,0.7l0.3,0.7
			c0.8,3.9,1.1,7.1,1.1,10.3c0,22.5-15.3,34.3-18.4,36.4l-34.9,37.8c-0.2,0.2-0.4,0.3-0.6,0.5c-5.9,3.9-8,11.7-8.3,13.2l0.1,103.9
			c0,1.7,0.4,3,1.3,3.8c1.3,1.2,3.5,1.6,5.2,1.6c4.6,0,6.7-2.2,7.5-3.3v-43.3c0-12.2,9.9-22.2,22.2-22.2c12.2,0,22.2,10,22.2,22.2
			v134.4c0,12.1-8.5,21.9-8.9,22.4l-13.4,22.3C442.3,694,441.3,694.6,440.3,694.6z M332.3,688.6h106.3l12.8-21.1
			c0.1-0.1,0.3-0.4,0.4-0.5c0.1-0.1,7.4-8.6,7.4-18.4V514.1c0-8.9-7.2-16.1-16.2-16.1c-8.9,0-16.1,7.2-16.1,16.1v44.2
			c0,0.6-0.2,1.1-0.5,1.6c-1.2,2-4.7,6.8-12.8,6.8c-2.3,0-6.5-0.4-9.6-3.2c-2.1-2-3.3-4.8-3.3-8.2L400.7,451c0-0.2,0.1-0.6,0.1-0.8
			c0.6-2.7,3.1-11.7,10.6-16.8l35-37.8c0.2-0.2,0.3-0.3,0.5-0.4c2.8-1.9,15.9-12,15.9-31.5c0-2.7-0.3-5.5-0.8-8.3
			c-0.4-0.5-1.3-1.4-2.6-1.6c-1.1-0.2-2.7,0.2-4.4,1.3l-91,74.1c-0.2,0.1-10.8,8.6-10.8,20.7v175.9c0,0.3,0.6,12.5-3.8,20.9
			L332.3,688.6z"/>
	</g>
	<g>
		<polygon fill="#6D6E71" points="302.4,729.6 282.4,729.6 282.4,977 483.9,977 483.9,729.6 464,729.6 		"/>
		<path d="M483.9,980H282.4c-1.7,0-3-1.3-3-3V729.6c0-1.7,1.4-3,3-3h201.5c1.7,0,3,1.4,3,3V977C486.9,978.7,485.6,980,483.9,980z
			 M285.4,974h195.4V732.6H285.4V974z"/>
	</g>
	<g>
		<path fill="#D6C1B3" d="M457.5,534.4V517c0-7.9-6.4-14.4-14.4-14.4c-8,0-14.4,6.4-14.4,14.4v17.3H457.5z"/>
	</g>
	<g>
		<path d="M429.9,536.7c-0.8,0-1.5-0.3-2.1-0.8c-0.6-0.6-0.9-1.4-0.9-2.2l-0.1-17.6c0.3-10.5,9.9-14.7,14.9-15.5
			c1.6-0.2,3.2,0.9,3.5,2.5c0.3,1.6-0.9,3.2-2.5,3.5c-0.4,0.1-9.6,1.7-9.8,9.6l0,14.4l9-0.4c1.7,0,3.1,1.2,3.1,2.9
			c0.1,1.7-1.2,3.1-2.9,3.1l-12.2,0.5C429.9,536.7,429.9,536.7,429.9,536.7z"/>
	</g>
	<g>
		<path d="M446.5,536.1c-1.6,0-2.9-1.3-3-2.9c-0.1-1.7,1.2-3.1,2.9-3.1l6.2-0.3c1.7,0,3.1,1.2,3.1,2.9c0.1,1.7-1.2,3.1-2.9,3.1
			l-6.2,0.3C446.6,536.1,446.6,536.1,446.5,536.1z"/>
	</g>
	<g>
		<path fill="#FFED8A" d="M575.9,402.8c-48.2,0-87.2,39-87.2,87.2c0,24.1,9.8,45.9,25.5,61.7l61.7-61.7V402.8z"/>
		<path d="M514.2,554.7L514.2,554.7c-0.8,0-1.6-0.3-2.1-0.9c-17-17.1-26.4-39.7-26.4-63.8c0-49.7,40.5-90.2,90.2-90.2
			c1.7,0,3,1.4,3,3V490c0,0.8-0.3,1.6-0.9,2.1l-61.7,61.7C515.8,554.4,515,554.7,514.2,554.7z M572.9,405.9
			c-45,1.6-81.2,38.7-81.2,84.1c0,21.5,8,41.7,22.6,57.4l58.6-58.6V405.9z"/>
	</g>
	<g>
		<path d="M920.2,386.7H782.7c-1.7,0-3-1.4-3-3c0-1.7,1.4-3,3-3h137.5c1.7,0,3,1.4,3,3C923.2,385.3,921.9,386.7,920.2,386.7z"/>
	</g>
	<g>
		<path d="M825.7,413.1h-43c-1.7,0-3-1.4-3-3s1.4-3,3-3h43c1.7,0,3,1.4,3,3S827.4,413.1,825.7,413.1z"/>
	</g>
	<g>
		<path d="M920.2,413.1h-65.2c-1.7,0-3-1.4-3-3s1.4-3,3-3h65.2c1.7,0,3,1.4,3,3S921.9,413.1,920.2,413.1z"/>
	</g>
	<g>
		<path fill="#FFED8A" d="M754.9,397.9c0,19.7-15.9,35.6-35.6,35.6s-35.6-15.9-35.6-35.6c0-19.6,15.9-35.6,35.6-35.6
			S754.9,378.3,754.9,397.9z"/>
		<path d="M719.3,436.5c-21.3,0-38.6-17.3-38.6-38.6c0-21.3,17.3-38.6,38.6-38.6c21.3,0,38.6,17.3,38.6,38.6
			C757.9,419.2,740.6,436.5,719.3,436.5z M719.3,365.3c-18,0-32.6,14.6-32.6,32.6c0,18,14.6,32.6,32.6,32.6s32.6-14.6,32.6-32.6
			C751.9,380,737.3,365.3,719.3,365.3z"/>
	</g>
	<g>
		<path d="M711.2,417.4L711.2,417.4c-0.8,0-1.6-0.3-2.1-0.9l-14.4-14.5c-1.2-1.2-1.2-3.1,0-4.3c1.2-1.2,3.1-1.2,4.3,0l12.3,12.3
			l28.6-28.6c1.2-1.2,3.1-1.2,4.3,0c1.2,1.2,1.2,3.1,0,4.3l-30.7,30.7C712.8,417.1,712,417.4,711.2,417.4z"/>
	</g>
	<g>
		<path d="M920.2,478.8H782.7c-1.7,0-3-1.4-3-3s1.4-3,3-3h137.5c1.7,0,3,1.4,3,3S921.9,478.8,920.2,478.8z"/>
	</g>
	<g>
		<path d="M825.7,505.2h-43c-1.7,0-3-1.4-3-3s1.4-3,3-3h43c1.7,0,3,1.4,3,3S827.4,505.2,825.7,505.2z"/>
	</g>
	<g>
		<path d="M920.2,505.2h-65.2c-1.7,0-3-1.4-3-3s1.4-3,3-3h65.2c1.7,0,3,1.4,3,3S921.9,505.2,920.2,505.2z"/>
	</g>
	<g>
		<path fill="#FF9E7A" d="M754.9,490c0,19.7-15.9,35.6-35.6,35.6s-35.6-15.9-35.6-35.6c0-19.6,15.9-35.6,35.6-35.6
			S754.9,470.4,754.9,490z"/>
		<path d="M719.3,528.6c-21.3,0-38.6-17.3-38.6-38.6c0-21.3,17.3-38.6,38.6-38.6c21.3,0,38.6,17.3,38.6,38.6
			C757.9,511.3,740.6,528.6,719.3,528.6z M719.3,457.4c-18,0-32.6,14.6-32.6,32.6c0,18,14.6,32.6,32.6,32.6s32.6-14.6,32.6-32.6
			C751.9,472,737.3,457.4,719.3,457.4z"/>
	</g>
	<g>
		<path d="M711.2,509.5L711.2,509.5c-0.8,0-1.6-0.3-2.1-0.9l-14.4-14.5c-1.2-1.2-1.2-3.1,0-4.3c1.2-1.2,3.1-1.2,4.3,0l12.3,12.3
			l28.6-28.6c1.2-1.2,3.1-1.2,4.3,0c1.2,1.2,1.2,3.1,0,4.3l-30.7,30.7C712.8,509.2,712,509.5,711.2,509.5z"/>
	</g>
	<g>
		<path d="M920.2,570.9H782.7c-1.7,0-3-1.4-3-3c0-1.7,1.4-3,3-3h137.5c1.7,0,3,1.4,3,3C923.2,569.5,921.9,570.9,920.2,570.9z"/>
	</g>
	<g>
		<path d="M825.7,597.3h-43c-1.7,0-3-1.4-3-3s1.4-3,3-3h43c1.7,0,3,1.3,3,3S827.4,597.3,825.7,597.3z"/>
	</g>
	<g>
		<path d="M920.2,597.3h-65.2c-1.7,0-3-1.4-3-3s1.4-3,3-3h65.2c1.7,0,3,1.3,3,3S921.9,597.3,920.2,597.3z"/>
	</g>
	<g>
		<path fill="#F1F2F2" d="M754.9,582.1c0,19.6-15.9,35.6-35.6,35.6s-35.6-15.9-35.6-35.6c0-19.7,15.9-35.6,35.6-35.6
			S754.9,562.4,754.9,582.1z"/>
		<path d="M719.3,620.7c-21.3,0-38.6-17.3-38.6-38.6c0-21.3,17.3-38.6,38.6-38.6c21.3,0,38.6,17.3,38.6,38.6
			C757.9,603.4,740.6,620.7,719.3,620.7z M719.3,549.5c-18,0-32.6,14.6-32.6,32.6s14.6,32.6,32.6,32.6s32.6-14.6,32.6-32.6
			S737.3,549.5,719.3,549.5z"/>
	</g>
	<g>
		<path d="M711.2,601.6L711.2,601.6c-0.8,0-1.6-0.3-2.1-0.9l-14.4-14.5c-1.2-1.2-1.2-3.1,0-4.3c1.2-1.2,3.1-1.2,4.3,0l12.3,12.3
			l28.6-28.6c1.2-1.2,3.1-1.2,4.3,0c1.2,1.2,1.2,3.1,0,4.3l-30.7,30.7C712.8,601.2,712,601.6,711.2,601.6z"/>
	</g>
	<g>
		<g>
			<polygon fill="#84D3FF" points="1001.8,700.4 984.8,709.6 873.6,769.2 856.9,778.2 875.2,812.3 1020.1,734.6 			"/>
			<path d="M875.2,815.4c-1.1,0-2.1-0.6-2.7-1.6l-18.3-34.1c-0.4-0.7-0.5-1.5-0.2-2.3c0.2-0.8,0.8-1.4,1.5-1.8l145-77.8
				c1.5-0.8,3.3-0.2,4.1,1.2l18.3,34.1c0.4,0.7,0.5,1.5,0.2,2.3c-0.2,0.8-0.8,1.4-1.5,1.8l-145,77.8
				C876.2,815.2,875.7,815.4,875.2,815.4z M861,779.4l15.5,28.8l139.6-74.9l-15.5-28.8L861,779.4z"/>
		</g>
		<g>
			<path fill="#FFE6D5" d="M971.5,684.8l0.3-0.7c2.5-5.7,10-25.6,0.3-43.7L922,547c-4-7.5-11.8-12.1-20.4-12.1
				c-3.8,0-7.5,0.9-10.9,2.7c-6.6,3.5-11,10-12,17.4l-0.4,3.2l-2.1-2.4c-4.4-4.9-10.7-7.8-17.3-7.8c-3.8,0-7.5,1-10.9,2.7
				c-6.9,3.7-11.4,10.5-12.1,18.3l-0.3,3.1l-2.2-2.1c-4.3-4.1-10.1-6.5-16.1-6.5c-3.8,0-7.5,0.9-10.9,2.7
				c-6.3,3.4-10.6,9.4-11.8,16.4L794,587l-41.4-77.2c-4-7.5-11.8-12.2-20.4-12.2c-3.8,0-7.5,0.9-10.8,2.7c-11.2,6-15.5,20-9.4,31.2
				l66,123.1c-5.2,27.1,0.3,45.4,0.3,45.4l0.1,0.3c0,0,0.4,0.9,1.1,2.3c4,7.4,15.3,24.9,35.6,29l38.8,12.3l0.2,0.2
				c1,0.8,3.6,3.2,6.9,6.8c2.3,2.5,7.5,10.4,10.9,15.7l1.8,2.6l111.2-59.7L971.5,684.8z"/>
			<path d="M873.6,772.2c-1,0-1.9-0.5-2.5-1.3l-1.8-2.6c-3-4.5-8.5-12.9-10.7-15.3c-2.1-2.3-4.3-4.5-6.4-6.4l-38.2-12.1
				c-21.2-4.3-33.2-22.7-37.4-30.5c-0.7-1.4-1.1-2.1-1.3-2.5l0,0c0-0.1-0.2-0.5-0.2-0.6c-0.2-0.8-5.5-18.8-0.5-45.7L709.2,533
				c-6.8-12.7-2-28.5,10.7-35.3c3.8-2,8-3.1,12.3-3.1c9.6,0,18.5,5.3,23,13.8l37.5,70c2.1-6.2,6.5-11.4,12.3-14.6
				c8.8-4.7,20.3-3.7,28.3,2.3c1.5-7.6,6.3-14.1,13.2-17.8c9.5-5.1,21.8-3.5,29.7,3.5c1.8-7.1,6.5-13.2,13-16.7
				c3.7-2,8-3.1,12.3-3.1c9.7,0,18.5,5.3,23,13.7l50.1,93.4c10,18.6,3,38.8,0.1,45.6l12.6,23.5c0.8,1.5,0.2,3.3-1.2,4.1L875,771.9
				C874.6,772.1,874.1,772.2,873.6,772.2z M781.1,699.1c0.1,0.2,0.4,0.9,1,2c3.7,7,14.5,23.6,33.6,27.5l39.1,12.4
				c0.4,0.1,0.7,0.3,1,0.6c2.6,2.3,5.1,4.7,7.4,7.3c2.3,2.5,6.8,9.3,11.2,16l0.2,0.3l106.1-56.9l-11.9-22.1
				c-0.4-0.8-0.5-1.8-0.1-2.6l0.3-0.7c2.4-5.4,9.4-24.2,0.4-41l-50.1-93.4c-3.5-6.5-10.3-10.5-17.7-10.5c-3.3,0-6.6,0.8-9.4,2.4
				c-5.7,3.1-9.6,8.7-10.4,15.2l-0.4,3.2c-0.2,1.2-1,2.2-2.1,2.5c-1.1,0.3-2.4,0-3.2-0.9l-2.1-2.4c-6-6.7-16.5-8.7-24.5-4.4
				c-6,3.2-9.9,9.1-10.5,15.9l-0.3,3.1c-0.1,1.2-0.9,2.2-2,2.6c-1.1,0.4-2.3,0.1-3.2-0.7l-2.2-2.1c-6.1-5.9-16-7.3-23.4-3.2
				c-5.5,2.9-9.2,8.1-10.3,14.3l-0.7,4.2c-0.2,1.3-1.2,2.3-2.5,2.5c-1.3,0.2-2.5-0.4-3.1-1.6l-41.4-77.2
				c-3.5-6.5-10.3-10.6-17.7-10.6c-3.3,0-6.5,0.8-9.4,2.4c-9.8,5.2-13.4,17.4-8.2,27.2l66,123.1c0.3,0.6,0.4,1.3,0.3,2
				C775.9,681.3,781,699,781.1,699.1C781,699.1,781,699.1,781.1,699.1L781.1,699.1z"/>
		</g>
		<g>
			<polygon fill="#6D6E71" points="1038.3,725 1020.2,734.7 873.6,813.3 855.5,823 939,977 1174.9,977 			"/>
			<path d="M1174.9,980H939c-1.1,0-2.1-0.6-2.7-1.6l-83.5-153.9c-0.4-0.7-0.5-1.5-0.2-2.3c0.2-0.8,0.8-1.4,1.5-1.8l182.8-98.1
				c1.5-0.8,3.3-0.2,4.1,1.2l136.6,252c0.5,0.9,0.5,2.1-0.1,3C1176.9,979.4,1175.9,980,1174.9,980z M940.8,974h229l-132.8-244.9
				l-177.5,95.2L940.8,974z"/>
		</g>
		<g>
			<path d="M815.1,629.2c-1.1,0-2.1-0.6-2.7-1.6l-21.4-40c-0.8-1.5-0.2-3.3,1.2-4.1c1.5-0.8,3.3-0.2,4.1,1.2l21.4,40
				c0.8,1.5,0.2,3.3-1.2,4.1C816.1,629.1,815.6,629.2,815.1,629.2z"/>
		</g>
		<g>
			<path d="M791.7,683.5c-1.1,0-2.1-0.6-2.7-1.6l-14.2-26.5c-0.8-1.5-0.2-3.3,1.2-4.1c1.5-0.8,3.3-0.2,4.1,1.2l14.2,26.5
				c0.8,1.5,0.2,3.3-1.2,4.1C792.7,683.4,792.2,683.5,791.7,683.5z"/>
		</g>
		<g>
			<path d="M853.3,608.1c-1.1,0-2.1-0.6-2.7-1.6L833,573.6c-0.8-1.5-0.2-3.3,1.2-4.1c1.5-0.8,3.3-0.2,4.1,1.2l17.7,32.9
				c0.8,1.5,0.2,3.3-1.2,4.1C854.2,608,853.7,608.1,853.3,608.1z"/>
		</g>
		<g>
			<path d="M896,593.5c-1.1,0-2.1-0.6-2.7-1.6l-17.7-32.9c-0.8-1.5-0.2-3.3,1.2-4.1c1.5-0.8,3.3-0.2,4.1,1.2l17.7,32.9
				c0.8,1.5,0.2,3.3-1.2,4.1C897,593.4,896.5,593.5,896,593.5z"/>
		</g>
		<g>
			<path fill="#D6C1B3" d="M755.6,532l-8.5-15.1c-3.9-6.9-12.7-9.4-19.6-5.5c-6.9,3.9-9.4,12.7-5.5,19.6l8.5,15.1L755.6,532z"/>
		</g>
		<g>
			<path d="M729.5,550.8c-0.3,0-0.6,0-0.8-0.1c-0.8-0.2-1.5-0.8-1.8-1.5l-10.2-19.1c-5.5-11.1,2.2-20.9,7.1-24.6
				c1.3-1,3.2-0.7,4.2,0.6c1,1.3,0.7,3.2-0.6,4.2c-0.4,0.3-10,7.7-5.4,17l8.7,16.3l10.3-6c1.4-0.8,3.3-0.4,4.1,1.1
				c0.8,1.4,0.4,3.3-1.1,4.1l-13,7.6C730.5,550.7,730,550.8,729.5,550.8z"/>
		</g>
		<g>
			<path d="M747.3,540.5c-1,0-2-0.5-2.6-1.5c-0.8-1.4-0.4-3.3,1.1-4.1l6.7-3.9c1.4-0.8,3.3-0.4,4.1,1.1c0.8,1.4,0.4,3.3-1.1,4.1
				l-6.7,3.9C748.4,540.4,747.8,540.5,747.3,540.5z"/>
		</g>
	</g>
	<g>
		<g>
			<path fill="#FF9E7A" d="M575.9,402.8V490v87.2c48.2,0,87.2-39,87.2-87.2C663.1,441.8,624,402.8,575.9,402.8z"/>
			<path d="M575.9,580.2c-1.7,0-3-1.4-3-3V402.8c0-1.7,1.4-3,3-3c49.7,0,90.2,40.5,90.2,90.2C666.1,539.7,625.6,580.2,575.9,580.2z
				 M578.9,405.9v168.2c45-1.6,81.2-38.7,81.2-84.1C660.1,444.6,623.9,407.5,578.9,405.9z"/>
		</g>
		<g>
			<path fill="#F1F2F2" d="M514.2,551.7c15.8,15.8,37.6,25.5,61.7,25.5V490L514.2,551.7z"/>
			<path d="M575.9,580.2c-24.1,0-46.8-9.4-63.8-26.4c-0.6-0.6-0.9-1.3-0.9-2.1s0.3-1.6,0.9-2.1l61.7-61.7c0.9-0.9,2.2-1.1,3.3-0.7
				c1.1,0.5,1.9,1.6,1.9,2.8v87.2C578.9,578.9,577.6,580.2,575.9,580.2z M518.5,551.6c14.9,13.9,34,21.8,54.3,22.5v-76.8
				L518.5,551.6z"/>
		</g>
	</g>
	<g>
		<g>
			<g>
				<path d="M223.1,284c-43.6,0-79.1-35.5-79.1-79.1c0-43.6,35.5-79.1,79.1-79.1c43.6,0,79.1,35.5,79.1,79.1
					C302.2,248.5,266.7,284,223.1,284z M223.1,131.8c-40.3,0-73.1,32.8-73.1,73.1c0,40.3,32.8,73.1,73.1,73.1
					c40.3,0,73.1-32.8,73.1-73.1C296.2,164.6,263.4,131.8,223.1,131.8z"/>
			</g>
			<g>
				<path d="M223.1,240.9c-19.9,0-36-16.2-36-36s16.2-36,36-36c19.9,0,36,16.2,36,36S243,240.9,223.1,240.9z M223.1,174.9
					c-16.5,0-30,13.5-30,30s13.5,30,30,30c16.5,0,30-13.5,30-30S239.6,174.9,223.1,174.9z"/>
			</g>
			<g>
				<path d="M267.4,378.3h-88.6c-1.5,0-2.8-1.2-3-2.7l-5.5-52.9c-46.4-20.8-76.3-66.9-76.3-117.9c0-71.2,57.9-129.2,129.2-129.2
					c71.2,0,129.2,57.9,129.2,129.2c0,51-29.9,97.1-76.4,117.9l-5.5,52.9C270.3,377.2,269,378.3,267.4,378.3z M181.5,372.3h83.2
					l5.4-51.9c0.1-1.1,0.8-2,1.8-2.5c45.2-19.5,74.3-63.9,74.3-113.1c0-67.9-55.2-123.1-123.1-123.1C155.2,81.7,100,137,100,204.9
					c0,49.2,29.2,93.5,74.3,113.1c1,0.4,1.7,1.4,1.8,2.5L181.5,372.3z"/>
			</g>
			<g>
				<path d="M276.1,407.1h-106c-1.7,0-3-1.4-3-3c0-1.7,1.4-3,3-3h106c1.7,0,3,1.4,3,3C279.1,405.8,277.7,407.1,276.1,407.1z"/>
			</g>
			<g>
				<path d="M256.1,436.5h-66c-1.7,0-3-1.4-3-3c0-1.7,1.4-3,3-3h66c1.7,0,3,1.4,3,3C259.1,435.2,257.8,436.5,256.1,436.5z"/>
			</g>
		</g>
		<g>
			<path d="M416.6,207.9H223.1c-1.7,0-3-1.4-3-3c0-1.7,1.4-3,3-3h193.5c1.7,0,3,1.4,3,3C419.6,206.5,418.3,207.9,416.6,207.9z"/>
		</g>
		<g>
			<path d="M441.8,233.1c-0.8,0-1.6-0.3-2.1-0.9L414.5,207c-0.6-0.6-0.9-1.3-0.9-2.1c0-0.8,0.3-1.6,0.9-2.1l25.2-25.2
				c1.2-1.2,3.1-1.2,4.3,0l15.5,15.5c0.6,0.6,0.9,1.3,0.9,2.1c0,0.8-0.3,1.6-0.9,2.1l-7.6,7.6l7.6,7.6c0.6,0.6,0.9,1.3,0.9,2.1
				s-0.3,1.6-0.9,2.1L444,232.2C443.4,232.8,442.6,233.1,441.8,233.1z M420.9,204.9l21,21l11.2-11.2l-7.6-7.6
				c-0.6-0.6-0.9-1.3-0.9-2.1c0-0.8,0.3-1.6,0.9-2.1l7.6-7.6l-11.2-11.2L420.9,204.9z"/>
		</g>
		<g>
			<path d="M223.1,215.9c-1.7,0-3-1.4-3-3v-16.1c0-1.7,1.4-3,3-3s3,1.4,3,3v16.1C226.1,214.6,224.8,215.9,223.1,215.9z"/>
		</g>
	</g>
	<g>
		<path d="M919.5,258.5H614c-1.7,0-3-1.4-3-3V103.8c0-1.7,1.4-3,3-3h305.5c1.7,0,3,1.4,3,3v151.7
			C922.5,257.1,921.2,258.5,919.5,258.5z M617,252.5h299.5V106.8H617V252.5z"/>
	</g>
	<g>
		<rect x="556.4" y="90.3" fill="#FFFFFF" width="305.5" height="151.7"/>
		<path d="M861.9,245.1H556.4c-1.7,0-3-1.4-3-3V90.3c0-1.7,1.4-3,3-3h305.5c1.7,0,3,1.4,3,3v151.7
			C864.9,243.7,863.5,245.1,861.9,245.1z M559.4,239h299.4V93.4H559.4V239z"/>
	</g>
	<g>
		<g>
			<rect x="498.7" y="76.9" fill="#FFFFFF" width="305.5" height="151.7"/>
			<path d="M804.2,231.7H498.7c-1.7,0-3-1.4-3-3V76.9c0-1.7,1.4-3,3-3h305.5c1.7,0,3,1.4,3,3v151.7
				C807.2,230.3,805.9,231.7,804.2,231.7z M501.7,225.6h299.4V79.9H501.7V225.6z"/>
		</g>
		<g>
			<path fill="#FFFFFF" d="M776.8,197c0,5.4-4.4,9.7-9.7,9.7H535.8c-5.4,0-9.7-4.4-9.7-9.7v-88.5c0-5.4,4.4-9.7,9.7-9.7h231.3
				c5.4,0,9.7,4.4,9.7,9.7V197z"/>
			<path d="M767.1,209.8H535.8c-7,0-12.8-5.7-12.8-12.8v-88.5c0-7,5.7-12.8,12.8-12.8h231.3c7,0,12.8,5.7,12.8,12.8V197
				C779.9,204.1,774.1,209.8,767.1,209.8z M535.8,101.8c-3.7,0-6.7,3-6.7,6.7V197c0,3.7,3,6.7,6.7,6.7h231.3c3.7,0,6.7-3,6.7-6.7
				v-88.5c0-3.7-3-6.7-6.7-6.7H535.8z"/>
		</g>
		<g>
			<path fill="#FFFFFF" d="M690,152.8c0,21.3-17.3,38.6-38.6,38.6c-21.3,0-38.6-17.3-38.6-38.6c0-21.3,17.3-38.6,38.6-38.6
				C672.8,114.2,690,131.5,690,152.8z"/>
			<path d="M651.5,194.4c-22.9,0-41.6-18.7-41.6-41.6c0-22.9,18.7-41.6,41.6-41.6c22.9,0,41.6,18.7,41.6,41.6
				C693,175.7,674.4,194.4,651.5,194.4z M651.5,117.2c-19.6,0-35.6,15.9-35.6,35.6c0,19.6,15.9,35.5,35.6,35.5
				c19.6,0,35.5-15.9,35.5-35.5C687,133.2,671.1,117.2,651.5,117.2z"/>
		</g>
		<g>
			<path fill="#FFFFFF" d="M743.9,152.8c0,7.4-6,13.4-13.4,13.4c-7.4,0-13.4-6-13.4-13.4c0-7.4,6-13.4,13.4-13.4
				C737.9,139.4,743.9,145.4,743.9,152.8z"/>
			<path d="M730.5,169.2c-9.1,0-16.4-7.4-16.4-16.4c0-9.1,7.4-16.4,16.4-16.4c9.1,0,16.4,7.4,16.4,16.4
				C746.9,161.9,739.5,169.2,730.5,169.2z M730.5,142.4c-5.7,0-10.4,4.7-10.4,10.4s4.7,10.4,10.4,10.4c5.7,0,10.4-4.7,10.4-10.4
				S736.2,142.4,730.5,142.4z"/>
		</g>
		<g>
			<path fill="#FFFFFF" d="M585.9,152.8c0,7.4-6,13.4-13.4,13.4c-7.4,0-13.4-6-13.4-13.4c0-7.4,6-13.4,13.4-13.4
				C579.8,139.4,585.9,145.4,585.9,152.8z"/>
			<path d="M572.4,169.2c-9.1,0-16.4-7.4-16.4-16.4c0-9.1,7.4-16.4,16.4-16.4c9.1,0,16.4,7.4,16.4,16.4
				C588.9,161.9,581.5,169.2,572.4,169.2z M572.4,142.4c-5.7,0-10.4,4.7-10.4,10.4s4.7,10.4,10.4,10.4c5.7,0,10.4-4.7,10.4-10.4
				S578.2,142.4,572.4,142.4z"/>
		</g>
	</g>
	<g>
		<g>
			<rect x="561.3" y="718.5" fill="#FFFFFF" width="166.9" height="223.2"/>
			<path d="M728.2,944.8H561.3c-1.7,0-3-1.3-3-3V718.5c0-1.7,1.4-3,3-3h166.9c1.7,0,3,1.4,3,3v223.2
				C731.2,943.4,729.9,944.8,728.2,944.8z M564.3,938.7h160.9V721.6H564.3V938.7z"/>
		</g>
		<g>
			<rect x="589.4" y="742.8" fill="#FFFFFF" width="110.7" height="36.9"/>
			<path d="M700.1,782.7H589.4c-1.7,0-3-1.3-3-3v-36.9c0-1.7,1.4-3,3-3h110.7c1.7,0,3,1.4,3,3v36.9
				C703.1,781.4,701.8,782.7,700.1,782.7z M592.4,776.7h104.7v-30.9H592.4V776.7z"/>
		</g>
		<g>
			<polyline fill="#FFFFFF" points="589.4,801.4 589.4,819.4 619.6,819.4 			"/>
			<path d="M619.6,822.4h-30.3c-1.7,0-3-1.4-3-3v-18c0-1.7,1.4-3,3-3c1.7,0,3,1.3,3,3v15h27.2c1.7,0,3,1.3,3,3
				C622.7,821,621.3,822.4,619.6,822.4z"/>
		</g>
		<g>
			<polyline fill="#FFFFFF" points="651.3,801.4 651.3,819.4 681.6,819.4 			"/>
			<path d="M681.6,822.4h-30.3c-1.7,0-3-1.4-3-3v-18c0-1.7,1.4-3,3-3s3,1.3,3,3v15h27.3c1.7,0,3,1.3,3,3
				C684.6,821,683.3,822.4,681.6,822.4z"/>
		</g>
		<g>
			<polyline fill="#FFFFFF" points="589.4,841.3 589.4,859.3 619.6,859.3 			"/>
			<path d="M619.6,862.3h-30.3c-1.7,0-3-1.3-3-3v-18c0-1.7,1.4-3,3-3c1.7,0,3,1.4,3,3v14.9h27.2c1.7,0,3,1.4,3,3
				C622.7,861,621.3,862.3,619.6,862.3z"/>
		</g>
		<g>
			<polyline fill="#FFFFFF" points="651.3,841.3 651.3,859.3 681.6,859.3 			"/>
			<path d="M681.6,862.3h-30.3c-1.7,0-3-1.3-3-3v-18c0-1.7,1.4-3,3-3s3,1.4,3,3v14.9h27.3c1.7,0,3,1.4,3,3
				C684.6,861,683.3,862.3,681.6,862.3z"/>
		</g>
		<g>
			<polyline fill="#FFFFFF" points="589.4,881.3 589.4,899.3 619.6,899.3 			"/>
			<path d="M619.6,902.3h-30.3c-1.7,0-3-1.3-3-3v-18c0-1.7,1.4-3,3-3c1.7,0,3,1.4,3,3v14.9h27.2c1.7,0,3,1.4,3,3
				S621.3,902.3,619.6,902.3z"/>
		</g>
		<g>
			<polyline fill="#FFFFFF" points="651.3,881.3 651.3,899.3 681.6,899.3 			"/>
			<path d="M681.6,902.3h-30.3c-1.7,0-3-1.3-3-3v-18c0-1.7,1.4-3,3-3s3,1.4,3,3v14.9h27.3c1.7,0,3,1.4,3,3S683.3,902.3,681.6,902.3z
				"/>
		</g>
	</g>
	<g>
		<path d="M855.5,944.8H728.2c-1.7,0-3-1.3-3-3s1.4-3,3-3h127.3c1.7,0,3,1.4,3,3S857.2,944.8,855.5,944.8z"/>
	</g>
	<g>
		<path d="M793.6,902.3h-63.6c-1.7,0-3-1.3-3-3s1.4-3,3-3h63.6c1.7,0,3,1.4,3,3S795.3,902.3,793.6,902.3z"/>
	</g>
	<g>
		<path d="M561.3,944.8h-29c-1.7,0-3-1.3-3-3s1.4-3,3-3h29c1.7,0,3,1.4,3,3S563,944.8,561.3,944.8z"/>
	</g>
	<g>
		<path fill="#F1F2F2" d="M231.6,502.5c0-9.8,8-17.8,17.8-17.8c9.9,0,17.8,8,17.8,17.8v15h-35.7V502.5z"/>
		<path d="M267.3,520.5h-35.7c-1.7,0-3-1.4-3-3v-15c0-11.5,9.4-20.8,20.8-20.8c11.5,0,20.9,9.4,20.9,20.8v15
			C270.3,519.2,268.9,520.5,267.3,520.5z M234.6,514.5h29.6v-12c0-8.2-6.6-14.8-14.8-14.8c-8.2,0-14.8,6.6-14.8,14.8V514.5z"/>
	</g>
	<g>
		<path fill="#FFFFFF" d="M231.6,727.7V502.5c0-9.8,8-17.8,17.8-17.8H109.9c-9.8,0-17.8,8-17.8,17.8v225.2H231.6z"/>
		<path d="M231.6,730.7H92.1c-1.7,0-3-1.4-3-3V502.5c0-11.5,9.3-20.8,20.8-20.8h139.5c1.7,0,3,1.4,3,3c0,1.7-1.4,3-3,3
			c-8.2,0-14.8,6.6-14.8,14.8v225.2C234.6,729.4,233.3,730.7,231.6,730.7z M95.1,724.7h133.5V502.5c0-5.8,2.4-11,6.2-14.8H109.9
			c-8.2,0-14.8,6.6-14.8,14.8V724.7z"/>
	</g>
	<g>
		<path fill="#FFFFFF" d="M251.6,779.7c0,50-40.5,90.5-90.5,90.5c-50,0-90.5-40.5-90.5-90.5s40.5-90.5,90.5-90.5
			C211.1,689.2,251.6,729.8,251.6,779.7z"/>
		<path d="M161.1,873.2c-51.5,0-93.5-41.9-93.5-93.5s41.9-93.5,93.5-93.5c51.5,0,93.5,41.9,93.5,93.5S212.7,873.2,161.1,873.2z
			 M161.1,692.3c-48.2,0-87.4,39.2-87.4,87.4c0,48.2,39.2,87.4,87.4,87.4c48.2,0,87.4-39.2,87.4-87.4
			C248.6,731.5,209.3,692.3,161.1,692.3z"/>
	</g>
	<g>
		<path d="M231.6,911.2h-141c-1.7,0-3-1.4-3-3s1.4-3,3-3h141c1.7,0,3,1.3,3,3S233.3,911.2,231.6,911.2z"/>
	</g>
	<g>
		<path fill="#FFFFFF" d="M1257,201.9c2-4.8,3.1-10.1,3.1-15.6c0-23-18.7-41.7-41.7-41.7c-4.1,0-8,0.6-11.6,1.7
			c-5.2-34.2-34.5-60.4-70.1-60.4c-37.1,0-67.4,28.4-70.7,64.6c-1.3-0.1-2.6-0.2-3.9-0.2c-34,0-61.5,27.6-61.5,61.5
			c0,34,27.6,61.5,61.5,61.5c0.6,0,1.2-0.1,1.8-0.1c0.3,0,0.6,0.1,0.9,0.1h191.7c19.7,0,35.7-16,35.7-35.7
			C1292.1,218.1,1276.5,202.3,1257,201.9z"/>
		<path d="M1256.4,276.4h-191.7c-0.2,0-0.8-0.1-0.9-0.1l-0.5,0c-0.4,0-0.9,0.1-1.3,0.1c-35.6,0-64.6-29-64.6-64.6
			c0-35.6,29-64.6,64.6-64.6c0.4,0,0.8,0,1.2,0c4.8-36.9,35.8-64.4,73.4-64.4c35.2,0,65.8,25.4,72.6,59.7c3-0.6,6.1-1,9.2-1
			c24.7,0,44.7,20.1,44.7,44.7c0,4.4-0.6,8.7-1.9,12.9c19.1,2.4,34,18.8,34,38.4C1295.1,259,1277.8,276.4,1256.4,276.4z
			 M1063.7,270.2c0.2,0,0.8,0.1,1,0.1l191.7,0c18,0,32.7-14.7,32.7-32.7c0-17.7-14.4-32.3-32.1-32.6c-1,0-1.9-0.5-2.5-1.4
			c-0.5-0.8-0.7-1.9-0.3-2.8c1.9-4.6,2.8-9.5,2.8-14.5c0-21.3-17.3-38.7-38.7-38.7c-3.6,0-7.3,0.5-10.8,1.6
			c-0.8,0.2-1.7,0.1-2.5-0.4c-0.7-0.5-1.2-1.2-1.4-2.1c-5-33-33.8-57.8-67.2-57.8c-35.4,0-64.5,26.6-67.7,61.8
			c-0.1,1.6-1.5,2.9-3.2,2.7l-1.1-0.1c-0.9-0.1-1.7-0.1-2.6-0.1c-32.3,0-58.5,26.3-58.5,58.5c0,32.3,26.2,58.5,58.5,58.5
			c0.3,0,0.6,0,0.9,0L1063.7,270.2C1063.7,270.2,1063.7,270.2,1063.7,270.2z"/>
	</g>
	<g>
		<g>
			<path d="M1075.1,331.6c-0.3,0-0.7-0.1-1-0.2c-1.6-0.5-2.4-2.3-1.9-3.8l46-134.1c0.5-1.6,2.2-2.4,3.8-1.9l133.2,44.1l45-131.3
				c0.5-1.6,2.3-2.4,3.8-1.9c1.6,0.5,2.4,2.3,1.9,3.8l-46,134.1c-0.5,1.6-2.2,2.4-3.8,1.9l-133.2-44.1l-45,131.3
				C1077.5,330.8,1076.4,331.6,1075.1,331.6z"/>
		</g>
		<g>
			<path fill="#FFFFFF" d="M1075.1,305.4c12.8,0,23.2,10.4,23.2,23.2s-10.4,23.2-23.2,23.2c-12.8,0-23.2-10.4-23.2-23.2
				S1062.3,305.4,1075.1,305.4z"/>
			<path d="M1075.1,354.8c-14.5,0-26.3-11.8-26.3-26.2c0-14.5,11.8-26.3,26.3-26.3c14.5,0,26.2,11.8,26.2,26.3
				C1101.3,343.1,1089.6,354.8,1075.1,354.8z M1075.1,308.4c-11.1,0-20.2,9.1-20.2,20.2c0,11.1,9.1,20.2,20.2,20.2
				c11.1,0,20.2-9.1,20.2-20.2C1095.3,317.5,1086.2,308.4,1075.1,308.4z"/>
		</g>
		<g>
			<path fill="#FFFFFF" d="M1122.7,173c12.8,0,23.2,10.4,23.2,23.2c0,12.8-10.4,23.2-23.2,23.2c-12.8,0-23.2-10.4-23.2-23.2
				C1099.5,183.4,1109.9,173,1122.7,173z"/>
			<path d="M1122.7,222.5c-14.5,0-26.3-11.8-26.3-26.3c0-14.5,11.8-26.2,26.3-26.2c14.5,0,26.2,11.8,26.2,26.2
				C1149,210.7,1137.2,222.5,1122.7,222.5z M1122.7,176.1c-11.1,0-20.2,9.1-20.2,20.2c0,11.1,9.1,20.2,20.2,20.2
				c11.1,0,20.2-9.1,20.2-20.2C1142.9,185.1,1133.9,176.1,1122.7,176.1z"/>
		</g>
		<g>
			<path fill="#FFFFFF" d="M1255.4,214.6c12.8,0,23.2,10.4,23.2,23.2c0,12.8-10.4,23.2-23.2,23.2c-12.8,0-23.2-10.4-23.2-23.2
				C1232.2,225,1242.6,214.6,1255.4,214.6z"/>
			<path d="M1255.4,264.1c-14.5,0-26.2-11.8-26.2-26.2c0-14.5,11.8-26.2,26.2-26.2c14.5,0,26.3,11.8,26.3,26.2
				C1281.7,252.3,1269.9,264.1,1255.4,264.1z M1255.4,217.6c-11.1,0-20.2,9.1-20.2,20.2c0,11.1,9.1,20.2,20.2,20.2
				c11.1,0,20.2-9.1,20.2-20.2C1275.7,226.7,1266.6,217.6,1255.4,217.6z"/>
		</g>
		<g>
			<path fill="#FFFFFF" d="M1303.1,82.2c12.8,0,23.2,10.4,23.2,23.2c0,12.8-10.4,23.2-23.2,23.2c-12.8,0-23.2-10.4-23.2-23.2
				C1279.9,92.6,1290.3,82.2,1303.1,82.2z"/>
			<path d="M1303.1,131.6c-14.5,0-26.3-11.8-26.3-26.2c0-14.5,11.8-26.2,26.3-26.2c14.5,0,26.2,11.8,26.2,26.2
				C1329.3,119.9,1317.5,131.6,1303.1,131.6z M1303.1,85.2c-11.1,0-20.2,9.1-20.2,20.2c0,11.1,9.1,20.2,20.2,20.2
				c11.1,0,20.2-9.1,20.2-20.2C1323.3,94.3,1314.2,85.2,1303.1,85.2z"/>
		</g>
	</g>
	<g>
		<path d="M223.1,782.7H99.1c-1.7,0-3-1.3-3-3s1.4-3,3-3h123.9c1.7,0,3,1.4,3,3S224.8,782.7,223.1,782.7z"/>
	</g>
	<g>
		<path d="M161.1,844.7c-1.7,0-3-1.4-3-3V717.7c0-1.7,1.4-3,3-3c1.7,0,3,1.4,3,3v123.9C164.1,843.4,162.8,844.7,161.1,844.7z"/>
	</g>
	<g>
		<path d="M130.9,561.6c-15.4,0-27.9-12.5-27.9-27.9s12.5-27.9,27.9-27.9c15.4,0,27.9,12.5,27.9,27.9S146.3,561.6,130.9,561.6z
			 M130.9,511.8c-12.1,0-21.9,9.8-21.9,21.9s9.8,21.9,21.9,21.9c12.1,0,21.9-9.8,21.9-21.9S142.9,511.8,130.9,511.8z"/>
	</g>
	<g>
		<path d="M213.4,524.1h-42.7c-1.7,0-3-1.3-3-3c0-1.7,1.4-3,3-3h42.7c1.7,0,3,1.4,3,3C216.4,522.7,215.1,524.1,213.4,524.1z"/>
	</g>
	<g>
		<path d="M213.4,554.7h-42.7c-1.7,0-3-1.3-3-3s1.4-3,3-3h42.7c1.7,0,3,1.4,3,3S215.1,554.7,213.4,554.7z"/>
	</g>
	<g>
		<path d="M213.4,585.3H110.9c-1.7,0-3-1.4-3-3s1.4-3,3-3h102.6c1.7,0,3,1.4,3,3S215.1,585.3,213.4,585.3z"/>
	</g>
	<g>
		<path d="M213.4,615.8H110.9c-1.7,0-3-1.4-3-3s1.4-3,3-3h102.6c1.7,0,3,1.4,3,3S215.1,615.8,213.4,615.8z"/>
	</g>
	<g>
		<path d="M213.4,646.4H110.9c-1.7,0-3-1.4-3-3s1.4-3,3-3h102.6c1.7,0,3,1.3,3,3S215.1,646.4,213.4,646.4z"/>
	</g>
	<g>
		<path d="M302.4,636.4h-30.3c-1.7,0-3-1.4-3-3c0-1.7,1.4-3,3-3h30.3c1.7,0,3,1.4,3,3C305.4,635.1,304,636.4,302.4,636.4z"/>
	</g>
	<g>
		<path d="M319.8,585.1h-63.7c-1.7,0-3-1.4-3-3s1.4-3,3-3h63.7c1.7,0,3,1.4,3,3S321.5,585.1,319.8,585.1z"/>
	</g>
	<g>
		<path d="M356.9,364.7c-7.8,0-14.1-6.3-14.1-14.1c0-7.8,6.3-14.1,14.1-14.1c7.8,0,14.1,6.3,14.1,14.1
			C371,358.3,364.7,364.7,356.9,364.7z M356.9,342.5c-4.4,0-8.1,3.6-8.1,8c0,4.4,3.6,8.1,8.1,8.1s8.1-3.6,8.1-8.1
			C365,346.1,361.3,342.5,356.9,342.5z"/>
	</g>
	<g>
		<path d="M423.4,297.8H368c-1.7,0-3-1.4-3-3c0-1.7,1.4-3,3-3h55.4c1.7,0,3,1.4,3,3C426.4,296.4,425,297.8,423.4,297.8z"/>
	</g>
	<g>
		<g>
			<path fill="#FFFFFF" d="M1255.8,490h60.6c0-35.8-14.9-68.2-38.7-91.3c-12,8.3-25.2,15-39.4,19.7
				C1249.4,439.8,1255.8,464.2,1255.8,490z"/>
			<path d="M1316.3,493h-60.6c-1.7,0-3-1.4-3-3c0-24.7-5.8-48.3-17.2-70.2c-0.4-0.8-0.5-1.7-0.1-2.5c0.3-0.8,1-1.5,1.8-1.7
				c13.7-4.6,26.7-11.1,38.6-19.4c1.2-0.8,2.8-0.7,3.8,0.3c25.6,24.8,39.6,58,39.6,93.5C1319.4,491.7,1318,493,1316.3,493z
				 M1258.8,487h54.5c-0.8-31.9-13.5-61.7-36-84.4c-10.8,7.3-22.5,13.2-34.8,17.6C1252.9,441.1,1258.3,463.5,1258.8,487z"/>
		</g>
		<g>
			<path fill="#FFFFFF" d="M1238.3,561.6c14.1,4.7,27.4,11.4,39.4,19.7c23.9-23.1,38.7-55.5,38.7-91.4h-60.6
				C1255.8,515.8,1249.4,540.2,1238.3,561.6z"/>
			<path d="M1277.6,584.4c-0.6,0-1.2-0.2-1.7-0.5c-11.9-8.3-24.9-14.8-38.6-19.4c-0.8-0.3-1.5-0.9-1.8-1.7c-0.3-0.8-0.3-1.7,0.1-2.5
				c11.4-21.9,17.2-45.5,17.2-70.2c0-1.7,1.4-3,3-3h60.6c1.7,0,3,1.4,3,3c0,35.5-14.1,68.8-39.6,93.5
				C1279.1,584.1,1278.4,584.4,1277.6,584.4z M1242.5,559.9c12.3,4.4,23.9,10.3,34.8,17.6c22.6-22.7,35.3-52.5,36-84.4h-54.5
				C1258.3,516.5,1252.9,538.9,1242.5,559.9z"/>
		</g>
		<g>
			<path fill="#FFFFFF" d="M1238.3,418.4c14.1-4.7,27.4-11.4,39.4-19.7c-22.8-22.1-53.9-35.8-88.2-35.9
				C1209.9,377.1,1226.7,396.1,1238.3,418.4z"/>
			<path d="M1238.3,421.4c-1.1,0-2.1-0.6-2.7-1.6c-11.3-21.6-27.8-40.5-47.9-54.5c-1.1-0.8-1.5-2.1-1.1-3.4c0.4-1.3,1.6-2.1,2.9-2.1
				c0,0,0,0,0,0c33.9,0.1,65.9,13.1,90.3,36.7c0.6,0.6,1,1.5,0.9,2.4c-0.1,0.9-0.5,1.7-1.3,2.2c-12.3,8.6-25.9,15.4-40.1,20.1
				C1238.9,421.4,1238.6,421.4,1238.3,421.4z M1199.1,366.2c16.6,13.3,30.5,29.9,40.7,48.5c11.7-4.1,22.8-9.6,33.1-16.4
				C1252.3,379.5,1226.5,368.4,1199.1,366.2z"/>
		</g>
		<g>
			<path fill="#FFFFFF" d="M1122.4,490h-60.6c0,35.9,14.9,68.2,38.7,91.4c12-8.3,25.2-15,39.4-19.7
				C1128.8,540.2,1122.4,515.8,1122.4,490z"/>
			<path d="M1100.6,584.4c-0.8,0-1.5-0.3-2.1-0.8c-25.6-24.8-39.6-58-39.6-93.5c0-1.7,1.4-3,3-3h60.6c1.7,0,3,1.4,3,3
				c0,24.7,5.8,48.4,17.2,70.2c0.4,0.8,0.5,1.7,0.1,2.5c-0.3,0.8-1,1.5-1.8,1.7c-13.7,4.6-26.7,11.1-38.6,19.4
				C1101.8,584.2,1101.2,584.4,1100.6,584.4z M1064.9,493c0.8,31.9,13.5,61.7,36,84.4c10.8-7.3,22.5-13.2,34.8-17.6
				c-10.4-21-15.8-43.4-16.3-66.9H1064.9z"/>
		</g>
		<g>
			<path fill="#FFFFFF" d="M1139.9,418.4c-14.1-4.7-27.4-11.4-39.4-19.7c-23.9,23.1-38.7,55.5-38.7,91.3h60.6
				C1122.4,464.2,1128.8,439.8,1139.9,418.4z"/>
			<path d="M1122.4,493h-60.6c-1.7,0-3-1.4-3-3c0-35.5,14.1-68.7,39.6-93.5c1-1,2.6-1.1,3.8-0.3c11.9,8.3,24.9,14.8,38.6,19.4
				c0.8,0.3,1.5,0.9,1.8,1.7c0.3,0.8,0.3,1.7-0.1,2.5c-11.4,21.9-17.2,45.5-17.2,70.2C1125.4,491.7,1124.1,493,1122.4,493z
				 M1064.9,487h54.5c0.4-23.4,5.9-45.9,16.3-66.9c-12.3-4.4-23.9-10.3-34.8-17.6C1078.4,425.3,1065.7,455.1,1064.9,487z"/>
		</g>
		<g>
			<path fill="#FFFFFF" d="M1238.3,418.4c-15.5,5.2-32,8-49.2,8c-17.2,0-33.7-2.8-49.2-8c-11.2,21.4-17.5,45.8-17.5,71.6h66.7h66.7
				C1255.8,464.2,1249.4,439.8,1238.3,418.4z"/>
			<path d="M1255.8,493h-133.4c-1.7,0-3-1.4-3-3c0-25.7,6-50.3,17.9-73c0.7-1.3,2.2-1.9,3.6-1.5c31.1,10.4,65.2,10.4,96.4,0
				c1.4-0.5,3,0.2,3.6,1.5c11.8,22.7,17.9,47.3,17.9,73C1258.8,491.7,1257.4,493,1255.8,493z M1125.5,487h127.3
				c-0.4-22.8-5.8-44.6-16-64.9c-30.9,9.8-64.5,9.7-95.3,0C1131.3,442.4,1125.9,464.2,1125.5,487z"/>
		</g>
		<g>
			<path fill="#FFFFFF" d="M1189.1,490h-66.7c0,25.9,6.3,50.2,17.5,71.6c15.4-5.2,32-8,49.2-8c17.2,0,33.7,2.8,49.2,8
				c11.2-21.4,17.5-45.8,17.5-71.6H1189.1z"/>
			<path d="M1139.9,564.6c-1.1,0-2.1-0.6-2.7-1.6c-11.9-22.7-17.9-47.3-17.9-73c0-1.7,1.4-3,3-3h133.4c1.7,0,3,1.4,3,3
				c0,25.7-6,50.3-17.9,73c-0.7,1.3-2.2,1.9-3.6,1.5c-31.2-10.4-65.3-10.4-96.4,0C1140.6,564.6,1140.3,564.6,1139.9,564.6z
				 M1189.1,550.6c16.2,0,32.2,2.5,47.6,7.4c10.2-20.3,15.5-42.2,16-64.9h-127.3c0.4,22.8,5.8,44.6,16,64.9
				C1156.9,553.1,1172.9,550.6,1189.1,550.6z"/>
		</g>
		<g>
			<path fill="#FFFFFF" d="M1188.7,362.8c-34.3,0.1-65.3,13.8-88.2,35.9c12,8.3,25.2,15,39.4,19.7
				C1151.5,396.1,1168.3,377.1,1188.7,362.8z"/>
			<path d="M1139.9,421.4c-0.3,0-0.6,0-1-0.2c-14.3-4.8-27.8-11.5-40.1-20.1c-0.7-0.5-1.2-1.3-1.3-2.2c-0.1-0.9,0.3-1.8,0.9-2.4
				c24.3-23.6,56.4-36.6,90.3-36.7c0,0,0,0,0,0c1.3,0,2.5,0.9,2.9,2.1c0.4,1.3-0.1,2.6-1.1,3.4c-20.1,14.1-36.6,32.9-47.9,54.5
				C1142.1,420.8,1141,421.4,1139.9,421.4z M1105.4,398.3c10.3,6.8,21.4,12.3,33.1,16.4c10.1-18.7,24-35.2,40.7-48.5
				C1151.6,368.4,1125.9,379.5,1105.4,398.3z"/>
		</g>
		<g>
			<path fill="#FFFFFF" d="M1189.5,362.8c-0.1-0.1-0.2-0.2-0.4-0.3c-0.1,0.1-0.2,0.2-0.4,0.3c0.1,0,0.2,0,0.4,0
				C1189.2,362.8,1189.3,362.8,1189.5,362.8z"/>
			<path d="M1189.5,365.8c0,0-0.3,0-0.3,0c-1.3-0.1-2.6-0.9-3-2.1c-0.4-1.2-0.2-2.5,0.8-3.3c1.1-0.9,3.1-1.1,4.1-0.2
				c1,0.8,1.5,2.3,1.1,3.5C1191.7,364.9,1190.7,365.8,1189.5,365.8z"/>
		</g>
		<g>
			<path fill="#FFFFFF" d="M1189.5,362.8c-0.1,0-0.2,0-0.4,0c-0.1,0-0.2,0-0.4,0c-20.4,14.3-37.2,33.4-48.8,55.6
				c15.4,5.2,32,8,49.2,8c17.2,0,33.7-2.8,49.2-8C1226.7,396.1,1209.9,377.1,1189.5,362.8z"/>
			<path d="M1189.1,429.4c-17.1,0-33.9-2.7-50.1-8.1c-0.8-0.3-1.5-0.9-1.8-1.7c-0.3-0.8-0.3-1.7,0.1-2.5
				c11.7-22.5,28.9-42.1,49.7-56.7c0.5-0.4,1.1-0.5,1.7-0.5c0,0,0.6,0,0.7,0c0.6,0,1.3,0.2,1.8,0.5c20.8,14.6,38,34.2,49.7,56.7
				c0.4,0.8,0.5,1.7,0.1,2.5c-0.3,0.8-1,1.5-1.8,1.7C1223,426.7,1206.2,429.4,1189.1,429.4z M1144.3,416.6c29,8.9,60.5,8.9,89.6,0
				c-10.9-19.8-26.3-37.2-44.8-50.4C1170.6,379.5,1155.2,396.8,1144.3,416.6z"/>
		</g>
		<g>
			<path fill="#FFFFFF" d="M1189.4,617.2c34.3-0.1,65.3-13.8,88.2-35.9c-12-8.3-25.2-15-39.4-19.7
				C1226.7,583.9,1209.9,602.9,1189.4,617.2z"/>
			<path d="M1189.4,620.3c-1.3,0-2.5-0.9-2.9-2.1c-0.4-1.3,0.1-2.6,1.1-3.4c20-14,36.6-32.9,47.9-54.5c0.7-1.3,2.2-2,3.6-1.5
				c14.3,4.8,27.8,11.5,40.1,20.1c0.7,0.5,1.2,1.3,1.3,2.2c0.1,0.9-0.3,1.8-0.9,2.4C1255.4,607.1,1223.3,620.2,1189.4,620.3
				C1189.4,620.3,1189.4,620.3,1189.4,620.3z M1239.7,565.3c-10.1,18.7-24,35.2-40.7,48.5c27.5-2.2,53.3-13.4,73.8-32.1
				C1262.5,574.9,1251.4,569.4,1239.7,565.3z"/>
		</g>
		<g>
			<path fill="#FFFFFF" d="M1139.9,561.6c-14.1,4.7-27.4,11.4-39.4,19.7c22.8,22.1,53.9,35.8,88.2,35.9
				C1168.3,602.9,1151.5,583.9,1139.9,561.6z"/>
			<path d="M1188.7,620.3C1188.7,620.3,1188.7,620.3,1188.7,620.3c-33.9-0.1-65.9-13.1-90.3-36.7c-0.6-0.6-1-1.5-0.9-2.4
				c0.1-0.9,0.5-1.7,1.3-2.2c12.3-8.6,25.8-15.4,40.1-20.1c1.4-0.5,2.9,0.2,3.6,1.5c11.3,21.6,27.8,40.5,47.9,54.5
				c1.1,0.8,1.5,2.1,1.1,3.4C1191.2,619.4,1190,620.3,1188.7,620.3z M1105.4,581.7c20.5,18.7,46.3,29.9,73.8,32.1
				c-16.6-13.3-30.5-29.9-40.7-48.5C1126.8,569.4,1115.7,574.9,1105.4,581.7z"/>
		</g>
		<g>
			<path fill="#FFFFFF" d="M1188.7,617.2c0.1,0.1,0.2,0.2,0.4,0.2c0.1-0.1,0.2-0.2,0.3-0.2c-0.1,0-0.2,0-0.3,0
				C1189,617.2,1188.9,617.2,1188.7,617.2z"/>
			<path d="M1188.9,620.4c-0.5,0-1.1-0.1-1.5-0.4c0,0-0.2-0.1-0.2-0.2c-1.1-0.8-1.6-2.2-1.2-3.4c0.4-1.3,1.5-2.2,2.8-2.2h0.7
				c1.3,0,2.5,0.9,2.9,2.1c0.4,1.3-0.1,2.6-1.2,3.4C1190.6,620.1,1189.7,620.4,1188.9,620.4z"/>
		</g>
		<g>
			<path fill="#FFFFFF" d="M1189.1,553.6c-17.2,0-33.7,2.8-49.2,8c11.6,22.2,28.4,41.3,48.8,55.6c0.1,0,0.2,0,0.4,0
				c0.1,0,0.2,0,0.3,0c20.4-14.3,37.2-33.4,48.8-55.6C1222.8,556.5,1206.3,553.6,1189.1,553.6z"/>
			<path d="M1189.4,620.3h-0.3c-0.6,0-1.6-0.2-2.1-0.5c-20.8-14.6-38-34.2-49.7-56.7c-0.4-0.8-0.5-1.7-0.1-2.5
				c0.3-0.8,1-1.5,1.8-1.7c32.4-10.8,67.8-10.8,100.2,0c0.8,0.3,1.5,0.9,1.8,1.7c0.3,0.8,0.3,1.7-0.1,2.5
				c-11.7,22.5-28.9,42.1-49.8,56.7C1190.7,620.1,1190.1,620.3,1189.4,620.3z M1144.3,563.4c10.9,19.8,26.3,37.2,44.8,50.4
				c18.4-13.2,33.9-30.6,44.8-50.4C1204.8,554.4,1173.4,554.4,1144.3,563.4z"/>
		</g>
	</g>
	<g>
		<g>
			<path fill="#FFFFFF" d="M1188.7,570.9c-35.3,0-63.9,28.6-63.9,63.9c0,35.3,28.6,63.9,63.9,63.9c35.3,0,63.9-28.6,63.9-63.9
				C1252.6,599.5,1224,570.9,1188.7,570.9z"/>
			<path d="M1188.7,701.8c-36.9,0-66.9-30-66.9-66.9c0-36.9,30-66.9,66.9-66.9c36.9,0,66.9,30,66.9,66.9
				C1255.7,671.7,1225.6,701.8,1188.7,701.8z M1188.7,573.9c-33.6,0-60.9,27.3-60.9,60.9c0,33.6,27.3,60.9,60.9,60.9
				c33.6,0,60.9-27.3,60.9-60.9C1249.6,601.3,1222.3,573.9,1188.7,573.9z"/>
		</g>
		<g>
			<path fill="#FFFFFF" d="M1296.2,635.3c0-59.3-48.1-107.4-107.4-107.4c-59.3,0-107.4,48.1-107.4,107.4c0,18.8,4.8,36.4,13.3,51.7
				l0.2,0.3c1,1.9,2.2,3.8,3.4,5.6l90.7,151.7l90.7-151.7c1.2-1.9,2.3-3.7,3.4-5.6l0.2-0.3h0
				C1291.3,671.7,1296.2,654.1,1296.2,635.3z M1188.7,698.7c-35.3,0-63.9-28.6-63.9-63.9c0-35.3,28.6-63.9,63.9-63.9
				c35.3,0,63.9,28.6,63.9,63.9C1252.6,670.1,1224,698.7,1188.7,698.7z"/>
			<path d="M1188.7,847.7c-1.1,0-2-0.6-2.6-1.5l-90.7-151.7c-1.2-1.8-2.3-3.8-3.4-5.7c-9.1-16.5-13.8-34.9-13.8-53.4
				c0-60.9,49.5-110.4,110.5-110.4c60.9,0,110.5,49.5,110.5,110.4c0,18.6-4.7,37-13.6,53.2c-1.3,2.3-2.4,4.2-3.6,6.1l-90.6,151.7
				C1190.8,847.1,1189.8,847.7,1188.7,847.7z M1188.7,530.9c-57.6,0-104.4,46.8-104.4,104.4c0,17.5,4.5,34.9,12.9,50.3
				c1.2,2.1,2.3,4,3.4,5.8l88.1,147.5l88.1-147.4c1.2-1.9,2.3-3.7,3.3-5.6c8.6-15.6,13-33,13-50.5
				C1293.1,577.7,1246.3,530.9,1188.7,530.9z M1188.7,701.8c-36.9,0-66.9-30-66.9-66.9c0-36.9,30-66.9,66.9-66.9
				c36.9,0,66.9,30,66.9,66.9C1255.7,671.7,1225.6,701.8,1188.7,701.8z M1188.7,573.9c-33.6,0-60.9,27.3-60.9,60.9
				c0,33.6,27.3,60.9,60.9,60.9c33.6,0,60.9-27.3,60.9-60.9C1249.6,601.3,1222.3,573.9,1188.7,573.9z"/>
		</g>
	</g>
	<g>
		<path d="M1238.3,847.7h-99.1c-1.7,0-3-1.4-3-3s1.4-3,3-3h99.1c1.7,0,3,1.3,3,3S1239.9,847.7,1238.3,847.7z"/>
	</g>
	<g>
		<path d="M1286.2,893.3h-122.8c-1.7,0-3-1.3-3-3c0-1.7,1.4-3,3-3h122.8c1.7,0,3,1.4,3,3C1289.2,892,1287.9,893.3,1286.2,893.3z"/>
	</g>
</g>
</svg>
