<?xml version="1.0" encoding="utf-8"?>
<!-- Generator: Adobe Illustrator 16.0.0, SVG Export Plug-In . SVG Version: 6.00 Build 0)  -->
<!DOCTYPE svg PUBLIC "-//W3C//DTD SVG 1.1//EN" "http://www.w3.org/Graphics/SVG/1.1/DTD/svg11.dtd">
<svg version="1.1" id="Layer_1" xmlns="http://www.w3.org/2000/svg" xmlns:xlink="http://www.w3.org/1999/xlink" x="0px" y="0px"
	 width="335.986px" height="235.19px" viewBox="0 0 335.986 235.19" enable-background="new 0 0 335.986 235.19"
	 xml:space="preserve">
<g>
	<g>
		<rect y="-0.199" fill="#CBCDC7" width="335.986" height="235.191"/>
	</g>
</g>
<g>
	<path fill="#258ACE" d="M177.108,198.383h-38.581c-5.242,0-9.496,4.252-9.496,9.498c0,5.244,4.254,9.496,9.496,9.496h38.581
		V198.383z"/>
	<g>
		<rect x="177.108" y="201.082" fill="#DEDEDE" width="12.602" height="13.596"/>
		<g>
			<rect x="181.535" y="203.062" fill="#032E4F" width="1.861" height="2.688"/>
			<rect x="181.535" y="210.01" fill="#032E4F" width="1.861" height="2.689"/>
		</g>
	</g>
</g>
<path fill="#324A5E" d="M161.164,73.904c4.779,0,8.65,3.875,8.65,8.649v91.218c0,4.777-3.871,8.65-8.65,8.65H28.01
	c-4.781,0-8.652-3.873-8.652-8.65V82.553c0-4.774,3.871-8.649,8.652-8.649H161.164z"/>
<rect x="35.682" y="81.407" fill="#F4F8F7" width="117.811" height="93.515"/>
<path fill="#A7A9AC" d="M160.502,115.37c1.34,0,2.426,1.087,2.426,2.426v20.736c0,1.34-1.086,2.426-2.426,2.426l0,0
	c-1.342,0-2.428-1.086-2.428-2.426v-20.736C158.074,116.457,159.16,115.37,160.502,115.37L160.502,115.37z"/>
<g>
	<rect x="207.056" y="180.049" fill="#FF6C38" width="9.911" height="39.545"/>
	<rect x="221.92" y="189.812" fill="#FF6C38" width="9.906" height="29.781"/>
	<rect x="236.783" y="199.82" fill="#FF6C38" width="9.909" height="19.773"/>
	<rect x="251.649" y="185.623" fill="#FF6C38" width="9.907" height="33.971"/>
</g>
<rect x="254.84" y="129.559" fill="#FFFFFF" width="26.588" height="39.541"/>
<rect x="221.758" y="129.559" opacity="0.5" fill="#FFFFFF" width="26.588" height="39.541"/>
<rect x="286.111" y="129.559" opacity="0.5" fill="#FFFFFF" width="26.588" height="39.541"/>
<rect x="189.248" y="129.559" fill="#FFFFFF" width="26.587" height="39.541"/>
<g>
	<rect x="289.389" y="110.071" fill="#324A5E" width="10.934" height="16.082"/>
	<rect x="301.689" y="108.763" fill="#258ACE" width="10.936" height="17.389"/>
	<rect x="256.587" y="116.905" fill="#324A5E" width="10.934" height="9.248"/>
	<rect x="268.888" y="95.095" fill="#FF6C38" width="10.935" height="31.057"/>
	<rect x="223.785" y="107.944" fill="#324A5E" width="10.934" height="18.208"/>
	<rect x="236.086" y="116.499" fill="#26B99A" width="10.935" height="9.654"/>
	<rect x="190.984" y="110.071" fill="#324A5E" width="10.932" height="16.082"/>
	<rect x="203.283" y="101.93" fill="#FFFFFF" width="10.936" height="24.222"/>
	<rect x="189.248" y="127.52" fill="#D9D9D9" width="125.113" height="1.365"/>
</g>
<g>
	<path fill="#F4F8F7" d="M310.818,41.032c-0.004-1.771-0.172-3.502-0.469-5.187c-0.308-1.733-0.756-3.416-1.35-5.031l-8.802,3.204
		c0.403,1.108,0.708,2.266,0.916,3.456c0.202,1.155,0.315,2.344,0.315,3.558c0,1.217-0.113,2.404-0.315,3.562
		c-0.208,1.188-0.513,2.344-0.916,3.454c-0.415,1.128-0.923,2.209-1.52,3.235c-0.602,1.035-1.283,2.017-2.048,2.928
		c-0.768,0.914-1.617,1.76-2.53,2.525c-0.506,0.429-1.04,0.822-1.585,1.197l6.607,6.874c0.354-0.272,0.703-0.554,1.044-0.842
		c1.333-1.122,2.566-2.358,3.687-3.694c1.114-1.331,2.111-2.765,2.985-4.278c0.863-1.502,1.606-3.079,2.202-4.726
		c0.59-1.619,1.029-3.307,1.332-5.043c0.287-1.668,0.447-3.379,0.447-5.128C310.82,41.075,310.818,41.053,310.818,41.032z"/>
	<path fill="#324A5E" d="M311.063,42.204c0-1.774-0.159-3.512-0.462-5.2c-0.303-1.738-0.748-3.427-1.34-5.047
		c-0.602-1.649-1.349-3.228-2.219-4.726c-0.877-1.514-1.881-2.943-3.002-4.272c-1.123-1.331-2.356-2.565-3.691-3.683
		c-1.333-1.116-2.766-2.113-4.283-2.986c-1.497-0.862-3.072-1.605-4.725-2.203c-1.621-0.586-3.305-1.031-5.041-1.331
		c-1.668-0.286-3.379-0.446-5.129-0.446c-0.02,0-0.043,0.002-0.062,0.002c-1.771,0.004-3.504,0.17-5.189,0.467
		c-1.731,0.31-3.417,0.756-5.028,1.348l3.204,8.806c1.107-0.405,2.262-0.71,3.455-0.916c1.156-0.204,2.342-0.315,3.559-0.315
		c1.215,0,2.403,0.111,3.561,0.315c1.187,0.206,2.344,0.511,3.453,0.916c1.129,0.413,2.209,0.923,3.234,1.518
		c1.037,0.6,2.018,1.284,2.928,2.05c0.916,0.767,1.762,1.612,2.529,2.528c0.768,0.909,1.453,1.889,2.049,2.926
		c0.596,1.026,1.104,2.106,1.52,3.235c0.4,1.11,0.707,2.266,0.916,3.456c0.205,1.157,0.313,2.346,0.313,3.56h-3.249l7.975,13.815
		l7.979-13.815H311.063z"/>
	<rect x="280.934" y="12.35" fill="#263D3D" width="0" height="9.453"/>
	<rect x="280.678" y="61.538" fill="#263D3D" width="0" height="9.452"/>
	<rect x="250.801" y="41.071" fill="#263D3D" width="9.455" height="0"/>
	<path fill="#258ACE" d="M294.75,17.078l-13.816-7.979v3.251c-1.773,0-3.514,0.163-5.199,0.459c-1.74,0.306-3.426,0.755-5.049,1.343
		c-1.646,0.602-3.227,1.353-4.727,2.223c-1.513,0.876-2.938,1.879-4.268,2.999c-1.332,1.122-2.566,2.357-3.684,3.694
		c-1.119,1.331-2.112,2.765-2.986,4.28c-0.865,1.498-1.605,3.076-2.206,4.726c-0.584,1.618-1.029,3.305-1.327,5.043
		c-0.289,1.666-0.449,3.378-0.449,5.128c0,0.021,0.002,0.042,0.002,0.063c0.005,1.769,0.17,3.502,0.467,5.188
		c0.311,1.73,0.757,3.416,1.348,5.029l8.805-3.204c-0.404-1.11-0.707-2.265-0.916-3.454c-0.201-1.158-0.314-2.344-0.314-3.56
		c0-1.218,0.113-2.403,0.314-3.56c0.209-1.189,0.512-2.346,0.916-3.457c0.413-1.127,0.924-2.209,1.52-3.234
		c0.6-1.038,1.285-2.016,2.052-2.93c0.767-0.913,1.612-1.756,2.524-2.525c0.912-0.766,1.893-1.45,2.928-2.049
		c1.026-0.594,2.107-1.107,3.236-1.518c1.107-0.404,2.268-0.711,3.455-0.919c1.156-0.202,2.344-0.313,3.559-0.313v3.249
		L294.75,17.078z"/>
	<path fill="#FF6C38" d="M287.772,60.343c-1.108,0.405-2.266,0.711-3.452,0.916c-1.157,0.204-2.346,0.315-3.564,0.315
		c-1.213,0-2.402-0.111-3.562-0.315c-1.183-0.205-2.34-0.511-3.449-0.916c-1.129-0.411-2.209-0.922-3.237-1.518
		c-1.034-0.6-2.015-1.283-2.925-2.05c-0.914-0.767-1.765-1.612-2.529-2.528c-0.764-0.909-1.452-1.891-2.05-2.926
		c-0.594-1.026-1.104-2.105-1.521-3.235c-0.4-1.11-0.702-2.265-0.913-3.456c-0.2-1.156-0.313-2.346-0.313-3.56h3.248l-7.979-13.814
		l-7.978,13.814h3.253c0,1.775,0.166,3.512,0.461,5.202c0.301,1.737,0.751,3.425,1.343,5.045c0.601,1.65,1.351,3.228,2.221,4.726
		c0.878,1.514,1.878,2.943,2.999,4.273c1.124,1.331,2.36,2.566,3.693,3.682c1.334,1.115,2.765,2.113,4.283,2.986
		c1.498,0.862,3.074,1.605,4.725,2.203c1.618,0.586,3.304,1.029,5.041,1.33c1.668,0.287,3.378,0.447,5.132,0.447
		c0.019,0,0.039-0.002,0.058-0.002c1.773-0.004,3.506-0.169,5.193-0.467c1.73-0.31,3.416-0.755,5.027-1.347L287.772,60.343z"/>
	<path fill="#F4F8F7" d="M292.516,57.934c-0.437,0.298-0.883,0.588-1.34,0.854c-1.029,0.595-2.106,1.106-3.238,1.52
		c-1.105,0.401-2.263,0.707-3.455,0.916c-1.153,0.203-2.343,0.314-3.557,0.314v-3.25l-13.817,7.977l13.817,7.977V70.99
		c1.77,0,3.51-0.163,5.2-0.461c1.734-0.304,3.427-0.751,5.042-1.343c1.653-0.602,3.229-1.351,4.73-2.221
		c1.122-0.651,2.198-1.371,3.225-2.157L292.516,57.934z"/>
</g>
<path fill="#FF6C38" d="M98.152,106.561l-6.664,8.392l-6.303,7.94l-14.227,17.918l-18.01,22.682h28.967h22.889h10.139h10.717
	C125.66,140.424,114.906,119.881,98.152,106.561z"/>
<path fill="#258ACE" d="M124.045,120.98l-71.096,42.512h28.967h22.889h10.139h10.717h10.14
	C135.8,147.945,131.498,133.41,124.045,120.98z"/>
<path fill="#258ACE" d="M80.672,108.046l-4.535,9.067l-10.232,20.47l-12.955,25.908h28.967h22.889h10.139
	C114.943,139.223,100.988,118.224,80.672,108.046z"/>
<path fill="#26B99A" d="M104.828,121.705l-3.607,2.906l-4.039,3.254l-3.857,3.105l-17.82,14.354l-22.555,18.168h28.967h22.889h4.951
	h5.188h4.634C119.577,147.664,114.047,133.135,104.828,121.705z"/>
<g>
	<path fill="#324A5E" d="M79.377,121.123l-11.72-15.573H56.121v-2h12.035c0.314,0,0.61,0.147,0.799,0.398l12.02,15.971
		L79.377,121.123z"/>
</g>
<g>
	<path fill="#324A5E" d="M84.382,152.072l-16.71-21.131H56.121v-2h12.035c0.306,0,0.595,0.141,0.784,0.381l17.01,21.51
		L84.382,152.072z"/>
</g>
<g>
	<path fill="#324A5E" d="M103.715,116.634l-1.598-1.203l12.02-15.972c0.188-0.251,0.484-0.398,0.799-0.398h12.035v2h-11.536
		L103.715,116.634z"/>
</g>
<g>
	<g>
		<polygon fill-rule="evenodd" clip-rule="evenodd" fill="#FFD7B7" points="23.433,-0.199 14.102,-0.199 0,12.557 0,20.672 
			22.498,45.795 45.766,24.748 		"/>
		<path fill-rule="evenodd" clip-rule="evenodd" fill="#FFD7B7" d="M40.436,66.795c-2.207-2.559-4.951-5.603-8.16-9.232
			l2.389,16.573c1.059,7.356-5.344,9.793-8.775,8.825l-8.652-37.849c-1.223-5.343,3.016-12.374,8.525-17.592
			c11.388-10.786,25.34-9.569,39.908,6.263l26.688,19.915c5.705,4.256-0.369,12.27-6.092,7.925L67.555,47.42
			c0.033,0.457-0.051,1.017-0.154,1.521l22.908,21.062c5.295,4.868-2.1,11.577-6.584,7.522L62.4,58.252
			c-0.172,0.241-0.607,0.648-0.766,0.799l22.48,24.107c4.521,4.849-2.83,11.624-7.32,6.807L52.727,64.155
			c-0.494,0.128-0.992,0.237-1.494,0.324l20.672,27.2c3.936,5.177-3.881,11.411-7.982,6.017L40.436,66.795z"/>
	</g>
	<g>
		<g>
			<polygon fill-rule="evenodd" clip-rule="evenodd" fill="#FFFFFF" points="27.308,-0.199 0,-0.199 0,24.875 5.566,31.228 
				33.265,6.597 			"/>
			<polygon fill-rule="evenodd" clip-rule="evenodd" fill="#00ADF5" points="0,-0.199 0,16.491 18.768,-0.199 			"/>
			<polygon fill-rule="evenodd" clip-rule="evenodd" fill="#0099D8" points="3.4,-0.199 10.168,7.451 18.769,-0.199 			"/>
		</g>
	</g>
</g>
<g>
	<g>
		<polygon fill-rule="evenodd" clip-rule="evenodd" fill="#E7D1A7" points="83.799,234.992 87.496,230.75 66.062,206.75 
			41.429,234.992 		"/>
		<polygon fill-rule="evenodd" clip-rule="evenodd" fill="#FFD7B7" points="83.004,234.992 83.912,233.793 56.664,216.607 
			42.738,234.992 		"/>
		<polygon fill-rule="evenodd" clip-rule="evenodd" fill="#FFFFFF" points="59.53,234.992 47.258,225.648 40.037,234.992 		"/>
	</g>
	<g>
		<path fill-rule="evenodd" clip-rule="evenodd" fill="#EBC5A8" d="M72.65,168.381l-11.818,24.066
			c-1.521,3.096-4.217,16.359-1.252,18.125c2.963,1.762,9.42-6.549,10.863-9.688l7.336-17.506
			C81.986,173.344,76.064,169.932,72.65,168.381z"/>
		<path fill-rule="evenodd" clip-rule="evenodd" fill="#FFD7B7" d="M67.674,234.992h17.584c4.52-2.254,9.745-5.945,12.848-9.994
			l16.02-20.908c3.498-4.562-0.699-11.242-5.562-9.826c1.773-4.881-2.926-10.658-7.814-8.318c2.896-4.822-1.561-11.324-6.553-9.727
			l18.924-24.812c4.717-5.988-3.836-14.377-9.375-6.938l-44.201,58.334c-2.365,3.174-2.051,7.559-2.557,13.629
			C56.549,221.678,60.623,230.658,67.674,234.992z"/>
		<path fill-rule="evenodd" clip-rule="evenodd" fill="#D4B194" d="M103.264,201.822c0,0,3.26-4.082,6.137-7.723
			c-0.275,0.031-0.555,0.084-0.838,0.164c0.154-0.428,0.262-0.863,0.322-1.301C106.316,196.945,103.264,201.822,103.264,201.822
			L103.264,201.822z M96.572,192.188l-0.096-0.463c1.465-2.328,3.521-5.572,5.086-7.947c-0.131,0.738-0.396,1.473-0.814,2.168
			c0.326-0.154,0.648-0.275,0.971-0.359C99.975,187.83,97.994,190.367,96.572,192.188L96.572,192.188z M93.723,178.383l-0.246-1.186
			c0.26-0.359,0.502-0.688,0.719-0.979c-0.035,0.047,0.023,0.027,0.145-0.043c0.445-0.129,0.891-0.195,1.322-0.203
			C95.08,176.707,94.416,177.529,93.723,178.383z M93.477,177.197l0.246,1.186c-3.166,3.895-6.998,8.49-6.998,8.49
			S90.959,180.666,93.477,177.197L93.477,177.197z M96.477,191.725l0.096,0.463c-1.145,1.465-1.928,2.465-1.928,2.465
			S95.4,193.436,96.477,191.725z"/>
	</g>
</g>
<circle fill="#324A5E" cx="203.086" cy="43.312" r="32.604"/>
<circle fill="#324A5E" cx="298.307" cy="200.821" r="22.112"/>
<polygon fill="#84DBFF" points="186.002,42.163 192.42,32.645 193.156,31.315 193.658,32.762 201.95,52.401 216.76,40.444 
	220.531,42.86 220.531,44.524 216.852,42.188 201.381,54.674 192.859,34.517 187.176,42.95 "/>
<polygon fill="#FF7058" points="192.484,47.456 203.279,30.851 213.338,53.37 220.531,51.949 220.531,53.383 212.512,54.971 
	203.047,33.794 193.529,48.45 186.996,53.214 186.17,52.079 "/>
<g>
	<polygon fill="#FFFFFF" points="185.641,60.717 220.465,60.717 220.465,58.832 187.527,58.832 187.527,25.905 185.641,25.905 	"/>
	<polygon fill="#FFFFFF" points="219.769,56.327 219.769,63.274 224.469,59.799 	"/>
	<polygon fill="#FFFFFF" points="183.162,26.964 190.123,26.964 186.646,22.263 	"/>
</g>
<g>
	<path fill="#FFFFFF" d="M103.339,34.17c0,0.263-0.022,0.525-0.045,0.786c-2.032,0.787-4.432,1.246-6.99,1.246
		c-2.553,0-4.956-0.459-6.989-1.246c-0.021-0.261-0.045-0.523-0.045-0.786c0-4.085,3.148-7.383,7.034-7.383
		C100.192,26.788,103.339,30.085,103.339,34.17z"/>
	<path fill="#FFFFFF" d="M99.188,21.655c0,1.986-1.29,4.412-2.885,4.412c-1.593,0-2.884-2.426-2.884-4.412
		c0-1.989,1.291-2.774,2.884-2.774C97.898,18.88,99.188,19.666,99.188,21.655z"/>
	<rect x="108.711" y="20.518" fill="#FFFFFF" width="46.77" height="14.023"/>
</g>
<rect x="111.049" y="22.857" fill="#4CDBC4" width="33.508" height="9.325"/>
<rect x="108.711" y="42.034" fill="#FFFFFF" width="46.77" height="14.024"/>
<rect x="111.049" y="44.371" fill="#4CDBC4" width="20.621" height="9.327"/>
<text transform="matrix(1 0 0 1 191.9053 165.3057)" fill="#324A5E" font-family="'Futura-ExtraBold'" font-size="7.78">25%</text>
<text transform="matrix(1 0 0 1 224.7627 165.3057)" fill="#324A5E" font-family="'Futura-ExtraBold'" font-size="7.78">57%</text>
<text transform="matrix(1 0 0 1 115.876 95.7095)" fill="#324A5E" font-family="'Futura-ExtraBold'" font-size="7.78">57%</text>
<text transform="matrix(1 0 0 1 45.1943 116.0327)" fill="#324A5E" font-family="'Futura-ExtraBold'" font-size="7.78">56%</text>
<text transform="matrix(1 0 0 1 40.5283 140.6973)" fill="#324A5E" font-family="'Futura-ExtraBold'" font-size="7.78">81%</text>
<text transform="matrix(1 0 0 1 257.6201 165.3057)" fill="#324A5E" font-family="'Futura-ExtraBold'" font-size="7.78">89%</text>
<text transform="matrix(1 0 0 1 288.4775 165.3057)" fill="#324A5E" font-family="'Futura-ExtraBold'" font-size="7.78">18%</text>
<g>
	<path fill="#324A5E" d="M300.242,98.991l-32.678-13.726L234.893,98.32c-0.173,0.068-0.361,0.087-0.543,0.057l-33.056-5.77
		l0.344-1.971l32.776,5.721l32.789-13.102c0.244-0.098,0.517-0.095,0.759,0.007l33.056,13.885L300.242,98.991z"/>
</g>
<g>
	<rect x="197.99" y="88.146" fill="#FFFFFF" width="6.951" height="6.95"/>
	<path fill="#3C3C3B" d="M205.555,95.709h-8.177v-8.177h8.177V95.709z M198.604,94.484h5.725v-5.725h-5.725V94.484z"/>
</g>
<g>
	<rect x="264.098" y="80.708" fill="#FFFFFF" width="6.953" height="6.951"/>
	<path fill="#3C3C3B" d="M271.664,88.273h-8.178v-8.178h8.178V88.273z M264.713,87.046h5.725v-5.726h-5.725V87.046z"/>
</g>
<g>
	<rect x="297.154" y="94.593" fill="#FFFFFF" width="6.951" height="6.951"/>
	<path fill="#3C3C3B" d="M304.719,102.158h-8.178V93.98h8.178V102.158z M297.766,100.932h5.727v-5.726h-5.727V100.932z"/>
</g>
<g>
	<rect x="231.046" y="93.915" fill="#FFFFFF" width="6.95" height="6.952"/>
	<path fill="#3C3C3B" d="M238.609,101.479h-8.177v-8.177h8.177V101.479z M231.658,100.253h5.725v-5.726h-5.725V100.253z"/>
</g>
</svg>
